<svg width="1131" height="92" viewBox="0 0 1131 92" fill="none" xmlns="http://www.w3.org/2000/svg">
<rect width="1131" height="92" fill="#F1F1F1"/>
<path d="M34.08 46.488L43.296 42.624L44.112 45.216L37.392 47.832L44.112 50.448L43.296 53.04L34.08 49.152V46.488ZM56.208 53.52C56.16 53.552 56.048 53.608 55.872 53.688C55.712 53.768 55.496 53.856 55.224 53.952C54.952 54.032 54.616 54.104 54.216 54.168C53.832 54.232 53.392 54.264 52.896 54.264C51.536 54.264 50.544 53.864 49.92 53.064C49.296 52.248 48.984 51.064 48.984 49.512V39.936H45.864V37.488H51.936V49.728C51.936 50.496 52.088 51.016 52.392 51.288C52.696 51.56 53.08 51.696 53.544 51.696C54.136 51.696 54.632 51.616 55.032 51.456C55.432 51.296 55.696 51.192 55.824 51.144L56.208 53.52ZM63.816 39.48C63.816 40.056 63.632 40.512 63.264 40.848C62.896 41.184 62.456 41.352 61.944 41.352C61.432 41.352 60.992 41.184 60.624 40.848C60.272 40.512 60.096 40.056 60.096 39.48C60.096 38.888 60.272 38.424 60.624 38.088C60.992 37.752 61.432 37.584 61.944 37.584C62.456 37.584 62.896 37.752 63.264 38.088C63.632 38.424 63.816 38.888 63.816 39.48ZM68.208 53.52C67.6 53.808 67.024 54 66.48 54.096C65.952 54.208 65.464 54.264 65.016 54.264C64.248 54.264 63.6 54.152 63.072 53.928C62.56 53.704 62.144 53.384 61.824 52.968C61.52 52.536 61.304 52.016 61.176 51.408C61.048 50.8 60.984 50.104 60.984 49.32V45.168H57.864V42.72H63.936V49.704C63.936 50.376 64.056 50.88 64.296 51.216C64.552 51.536 64.968 51.696 65.544 51.696C65.816 51.696 66.144 51.664 66.528 51.6C66.912 51.52 67.344 51.368 67.824 51.144L68.208 53.52ZM70.512 43.08C71.04 42.936 71.688 42.8 72.456 42.672C73.24 42.544 74.088 42.48 75 42.48C75.896 42.48 76.64 42.608 77.232 42.864C77.824 43.104 78.288 43.456 78.624 43.92C78.976 44.368 79.224 44.912 79.368 45.552C79.512 46.176 79.584 46.872 79.584 47.64V54H76.632V48.024C76.632 46.968 76.512 46.208 76.272 45.744C76.032 45.28 75.544 45.048 74.808 45.048C74.584 45.048 74.36 45.056 74.136 45.072C73.928 45.088 73.704 45.112 73.464 45.144V54H70.512V43.08ZM85.488 47.184C85.776 46.848 86.064 46.496 86.352 46.128C86.656 45.744 86.944 45.352 87.216 44.952C87.504 44.552 87.776 44.168 88.032 43.8C88.288 43.416 88.512 43.056 88.704 42.72H92.256C91.968 43.088 91.64 43.488 91.272 43.92C90.904 44.352 90.52 44.792 90.12 45.24C89.736 45.688 89.344 46.12 88.944 46.536C88.56 46.952 88.208 47.336 87.888 47.688C88.288 48.072 88.72 48.536 89.184 49.08C89.648 49.608 90.104 50.16 90.552 50.736C91 51.312 91.408 51.888 91.776 52.464C92.16 53.04 92.464 53.552 92.688 54H89.304C89.112 53.6 88.856 53.152 88.536 52.656C88.232 52.144 87.904 51.648 87.552 51.168C87.2 50.672 86.84 50.208 86.472 49.776C86.12 49.328 85.792 48.96 85.488 48.672V54H82.512V37.848L85.488 37.344V47.184ZM115.488 45.72C115.296 45.672 115.064 45.624 114.792 45.576C114.536 45.528 114.272 45.488 114 45.456C113.728 45.408 113.464 45.376 113.208 45.36C112.952 45.344 112.736 45.336 112.56 45.336C112.144 45.336 111.736 45.36 111.336 45.408C110.936 45.44 110.528 45.512 110.112 45.624V54H107.136V43.464C107.92 43.176 108.72 42.944 109.536 42.768C110.368 42.592 111.336 42.504 112.44 42.504C112.6 42.504 112.824 42.512 113.112 42.528C113.416 42.544 113.736 42.576 114.072 42.624C114.408 42.656 114.744 42.704 115.08 42.768C115.432 42.816 115.744 42.888 116.016 42.984L115.488 45.72ZM117.744 48.456C117.744 47.464 117.896 46.592 118.2 45.84C118.504 45.088 118.904 44.464 119.4 43.968C119.896 43.456 120.464 43.072 121.104 42.816C121.744 42.56 122.4 42.432 123.072 42.432C124.736 42.432 126 42.928 126.864 43.92C127.728 44.896 128.16 46.328 128.16 48.216C128.16 48.408 128.152 48.608 128.136 48.816C128.136 49.024 128.128 49.192 128.112 49.32H120.792C120.792 50.056 121.096 50.64 121.704 51.072C122.312 51.488 123.096 51.696 124.056 51.696C124.648 51.696 125.208 51.632 125.736 51.504C126.28 51.376 126.736 51.248 127.104 51.12L127.512 53.64C127 53.816 126.456 53.96 125.88 54.072C125.304 54.2 124.656 54.264 123.936 54.264C122.976 54.264 122.112 54.144 121.344 53.904C120.592 53.648 119.944 53.28 119.4 52.8C118.872 52.304 118.464 51.696 118.176 50.976C117.888 50.256 117.744 49.416 117.744 48.456ZM125.304 47.28C125.304 46.976 125.264 46.688 125.184 46.416C125.104 46.128 124.976 45.872 124.8 45.648C124.624 45.424 124.4 45.248 124.128 45.12C123.856 44.976 123.52 44.904 123.12 44.904C122.736 44.904 122.4 44.968 122.112 45.096C121.84 45.224 121.608 45.4 121.416 45.624C121.24 45.848 121.096 46.104 120.984 46.392C120.888 46.68 120.824 46.976 120.792 47.28H125.304ZM140.208 53.52C140.16 53.552 140.048 53.608 139.872 53.688C139.712 53.768 139.496 53.856 139.224 53.952C138.952 54.032 138.616 54.104 138.216 54.168C137.832 54.232 137.392 54.264 136.896 54.264C135.536 54.264 134.544 53.864 133.92 53.064C133.296 52.248 132.984 51.064 132.984 49.512V39.936H129.864V37.488H135.936V49.728C135.936 50.496 136.088 51.016 136.392 51.288C136.696 51.56 137.08 51.696 137.544 51.696C138.136 51.696 138.632 51.616 139.032 51.456C139.432 51.296 139.696 51.192 139.824 51.144L140.208 53.52ZM141.96 44.136H152.04V46.584H141.96V44.136ZM141.96 48.816H152.04V51.264H141.96V48.816ZM162.96 37.704V38.88C162.96 39.28 162.936 39.72 162.888 40.2C162.856 40.664 162.8 41.144 162.72 41.64C162.656 42.136 162.584 42.624 162.504 43.104C162.424 43.584 162.344 44.032 162.264 44.448H160.536C160.456 44.032 160.376 43.584 160.296 43.104C160.216 42.624 160.136 42.136 160.056 41.64C159.992 41.144 159.936 40.656 159.888 40.176C159.84 39.696 159.816 39.256 159.816 38.856V37.704H162.96ZM158.232 37.704V38.88C158.232 39.28 158.208 39.72 158.16 40.2C158.128 40.664 158.072 41.144 157.992 41.64C157.928 42.136 157.848 42.624 157.752 43.104C157.672 43.584 157.592 44.032 157.512 44.448H155.808C155.728 44.032 155.648 43.584 155.568 43.104C155.488 42.624 155.408 42.136 155.328 41.64C155.264 41.144 155.208 40.656 155.16 40.176C155.112 39.696 155.088 39.256 155.088 38.856V37.704H158.232ZM170.472 51.768C171.192 51.768 171.744 51.72 172.128 51.624C172.512 51.512 172.704 51.296 172.704 50.976C172.704 50.768 172.64 50.592 172.512 50.448C172.4 50.304 172.232 50.184 172.008 50.088C171.8 49.976 171.552 49.872 171.264 49.776C170.992 49.68 170.704 49.584 170.4 49.488C169.968 49.36 169.528 49.216 169.08 49.056C168.632 48.88 168.224 48.664 167.856 48.408C167.488 48.152 167.184 47.832 166.944 47.448C166.704 47.048 166.584 46.552 166.584 45.96C166.584 45.48 166.672 45.032 166.848 44.616C167.04 44.184 167.328 43.808 167.712 43.488C168.112 43.152 168.616 42.896 169.224 42.72C169.832 42.528 170.56 42.432 171.408 42.432C172.144 42.432 172.824 42.488 173.448 42.6C174.088 42.712 174.64 42.872 175.104 43.08L174.648 45.576C174.376 45.496 173.952 45.368 173.376 45.192C172.8 45 172.152 44.904 171.432 44.904C170.68 44.904 170.168 45 169.896 45.192C169.64 45.368 169.512 45.56 169.512 45.768C169.512 45.944 169.568 46.104 169.68 46.248C169.808 46.376 169.968 46.496 170.16 46.608C170.368 46.72 170.6 46.832 170.856 46.944C171.128 47.04 171.416 47.136 171.72 47.232C172.152 47.376 172.6 47.536 173.064 47.712C173.528 47.888 173.944 48.112 174.312 48.384C174.696 48.64 175.008 48.976 175.248 49.392C175.488 49.792 175.608 50.288 175.608 50.88C175.608 51.344 175.52 51.784 175.344 52.2C175.168 52.616 174.872 52.976 174.456 53.28C174.056 53.584 173.528 53.824 172.872 54C172.216 54.176 171.408 54.264 170.448 54.264C169.472 54.264 168.64 54.152 167.952 53.928C167.264 53.704 166.712 53.504 166.296 53.328L166.752 50.856C167.312 51.08 167.904 51.288 168.528 51.48C169.168 51.672 169.816 51.768 170.472 51.768ZM180.432 45.168H177.864V42.72H180.432V39.888L183.384 39.408V42.72H188.112V45.168H183.384V49.728C183.384 50.144 183.424 50.48 183.504 50.736C183.584 50.992 183.696 51.192 183.84 51.336C183.984 51.48 184.16 51.576 184.368 51.624C184.576 51.672 184.808 51.696 185.064 51.696C185.336 51.696 185.584 51.688 185.808 51.672C186.048 51.656 186.272 51.632 186.48 51.6C186.704 51.552 186.928 51.488 187.152 51.408C187.392 51.328 187.648 51.224 187.92 51.096L188.328 53.64C187.784 53.864 187.192 54.024 186.552 54.12C185.928 54.216 185.32 54.264 184.728 54.264C184.04 54.264 183.432 54.208 182.904 54.096C182.376 53.984 181.928 53.768 181.56 53.448C181.192 53.128 180.912 52.68 180.72 52.104C180.528 51.512 180.432 50.744 180.432 49.8V45.168ZM200.328 42.72C200.024 43.776 199.728 44.816 199.44 45.84C199.168 46.848 198.88 47.84 198.576 48.816C198.272 49.776 197.944 50.72 197.592 51.648C197.256 52.576 196.888 53.48 196.488 54.36C196.184 55 195.88 55.552 195.576 56.016C195.288 56.48 194.96 56.856 194.592 57.144C194.24 57.448 193.84 57.672 193.392 57.816C192.96 57.96 192.448 58.032 191.856 58.032C191.36 58.032 190.904 57.992 190.488 57.912C190.088 57.832 189.752 57.728 189.48 57.6L190.032 55.128C190.352 55.272 190.632 55.368 190.872 55.416C191.128 55.48 191.4 55.512 191.688 55.512C192.264 55.512 192.728 55.32 193.08 54.936C193.432 54.552 193.712 54.096 193.92 53.568C193.216 52.16 192.512 50.552 191.808 48.744C191.104 46.92 190.464 44.912 189.888 42.72H192.96C193.104 43.312 193.264 43.944 193.44 44.616C193.632 45.288 193.832 45.96 194.04 46.632C194.248 47.304 194.464 47.968 194.688 48.624C194.928 49.264 195.168 49.864 195.408 50.424C195.568 49.864 195.736 49.264 195.912 48.624C196.088 47.968 196.256 47.312 196.416 46.656C196.576 45.984 196.728 45.312 196.872 44.64C197.032 43.968 197.176 43.328 197.304 42.72H200.328ZM212.208 53.52C212.16 53.552 212.048 53.608 211.872 53.688C211.712 53.768 211.496 53.856 211.224 53.952C210.952 54.032 210.616 54.104 210.216 54.168C209.832 54.232 209.392 54.264 208.896 54.264C207.536 54.264 206.544 53.864 205.92 53.064C205.296 52.248 204.984 51.064 204.984 49.512V39.936H201.864V37.488H207.936V49.728C207.936 50.496 208.088 51.016 208.392 51.288C208.696 51.56 209.08 51.696 209.544 51.696C210.136 51.696 210.632 51.616 211.032 51.456C211.432 51.296 211.696 51.192 211.824 51.144L212.208 53.52ZM213.744 48.456C213.744 47.464 213.896 46.592 214.2 45.84C214.504 45.088 214.904 44.464 215.4 43.968C215.896 43.456 216.464 43.072 217.104 42.816C217.744 42.56 218.4 42.432 219.072 42.432C220.736 42.432 222 42.928 222.864 43.92C223.728 44.896 224.16 46.328 224.16 48.216C224.16 48.408 224.152 48.608 224.136 48.816C224.136 49.024 224.128 49.192 224.112 49.32H216.792C216.792 50.056 217.096 50.64 217.704 51.072C218.312 51.488 219.096 51.696 220.056 51.696C220.648 51.696 221.208 51.632 221.736 51.504C222.28 51.376 222.736 51.248 223.104 51.12L223.512 53.64C223 53.816 222.456 53.96 221.88 54.072C221.304 54.2 220.656 54.264 219.936 54.264C218.976 54.264 218.112 54.144 217.344 53.904C216.592 53.648 215.944 53.28 215.4 52.8C214.872 52.304 214.464 51.696 214.176 50.976C213.888 50.256 213.744 49.416 213.744 48.456ZM221.304 47.28C221.304 46.976 221.264 46.688 221.184 46.416C221.104 46.128 220.976 45.872 220.8 45.648C220.624 45.424 220.4 45.248 220.128 45.12C219.856 44.976 219.52 44.904 219.12 44.904C218.736 44.904 218.4 44.968 218.112 45.096C217.84 45.224 217.608 45.4 217.416 45.624C217.24 45.848 217.096 46.104 216.984 46.392C216.888 46.68 216.824 46.976 216.792 47.28H221.304ZM230.472 51.768C231.192 51.768 231.744 51.72 232.128 51.624C232.512 51.512 232.704 51.296 232.704 50.976C232.704 50.768 232.64 50.592 232.512 50.448C232.4 50.304 232.232 50.184 232.008 50.088C231.8 49.976 231.552 49.872 231.264 49.776C230.992 49.68 230.704 49.584 230.4 49.488C229.968 49.36 229.528 49.216 229.08 49.056C228.632 48.88 228.224 48.664 227.856 48.408C227.488 48.152 227.184 47.832 226.944 47.448C226.704 47.048 226.584 46.552 226.584 45.96C226.584 45.48 226.672 45.032 226.848 44.616C227.04 44.184 227.328 43.808 227.712 43.488C228.112 43.152 228.616 42.896 229.224 42.72C229.832 42.528 230.56 42.432 231.408 42.432C232.144 42.432 232.824 42.488 233.448 42.6C234.088 42.712 234.64 42.872 235.104 43.08L234.648 45.576C234.376 45.496 233.952 45.368 233.376 45.192C232.8 45 232.152 44.904 231.432 44.904C230.68 44.904 230.168 45 229.896 45.192C229.64 45.368 229.512 45.56 229.512 45.768C229.512 45.944 229.568 46.104 229.68 46.248C229.808 46.376 229.968 46.496 230.16 46.608C230.368 46.72 230.6 46.832 230.856 46.944C231.128 47.04 231.416 47.136 231.72 47.232C232.152 47.376 232.6 47.536 233.064 47.712C233.528 47.888 233.944 48.112 234.312 48.384C234.696 48.64 235.008 48.976 235.248 49.392C235.488 49.792 235.608 50.288 235.608 50.88C235.608 51.344 235.52 51.784 235.344 52.2C235.168 52.616 234.872 52.976 234.456 53.28C234.056 53.584 233.528 53.824 232.872 54C232.216 54.176 231.408 54.264 230.448 54.264C229.472 54.264 228.64 54.152 227.952 53.928C227.264 53.704 226.712 53.504 226.296 53.328L226.752 50.856C227.312 51.08 227.904 51.288 228.528 51.48C229.168 51.672 229.816 51.768 230.472 51.768ZM238.512 54V37.848L241.464 37.344V42.816C241.704 42.736 241.992 42.664 242.328 42.6C242.664 42.52 242.96 42.48 243.216 42.48C244.048 42.48 244.744 42.608 245.304 42.864C245.864 43.104 246.312 43.456 246.648 43.92C246.984 44.368 247.224 44.912 247.368 45.552C247.512 46.176 247.584 46.872 247.584 47.64V54H244.632V48.024C244.632 46.968 244.512 46.208 244.272 45.744C244.032 45.28 243.576 45.048 242.904 45.048C242.632 45.048 242.36 45.08 242.088 45.144C241.832 45.208 241.624 45.264 241.464 45.312V54H238.512ZM249.744 48.456C249.744 47.464 249.896 46.592 250.2 45.84C250.504 45.088 250.904 44.464 251.4 43.968C251.896 43.456 252.464 43.072 253.104 42.816C253.744 42.56 254.4 42.432 255.072 42.432C256.736 42.432 258 42.928 258.864 43.92C259.728 44.896 260.16 46.328 260.16 48.216C260.16 48.408 260.152 48.608 260.136 48.816C260.136 49.024 260.128 49.192 260.112 49.32H252.792C252.792 50.056 253.096 50.64 253.704 51.072C254.312 51.488 255.096 51.696 256.056 51.696C256.648 51.696 257.208 51.632 257.736 51.504C258.28 51.376 258.736 51.248 259.104 51.12L259.512 53.64C259 53.816 258.456 53.96 257.88 54.072C257.304 54.2 256.656 54.264 255.936 54.264C254.976 54.264 254.112 54.144 253.344 53.904C252.592 53.648 251.944 53.28 251.4 52.8C250.872 52.304 250.464 51.696 250.176 50.976C249.888 50.256 249.744 49.416 249.744 48.456ZM257.304 47.28C257.304 46.976 257.264 46.688 257.184 46.416C257.104 46.128 256.976 45.872 256.8 45.648C256.624 45.424 256.4 45.248 256.128 45.12C255.856 44.976 255.52 44.904 255.12 44.904C254.736 44.904 254.4 44.968 254.112 45.096C253.84 45.224 253.608 45.4 253.416 45.624C253.24 45.848 253.096 46.104 252.984 46.392C252.888 46.68 252.824 46.976 252.792 47.28H257.304ZM261.744 48.456C261.744 47.464 261.896 46.592 262.2 45.84C262.504 45.088 262.904 44.464 263.4 43.968C263.896 43.456 264.464 43.072 265.104 42.816C265.744 42.56 266.4 42.432 267.072 42.432C268.736 42.432 270 42.928 270.864 43.92C271.728 44.896 272.16 46.328 272.16 48.216C272.16 48.408 272.152 48.608 272.136 48.816C272.136 49.024 272.128 49.192 272.112 49.32H264.792C264.792 50.056 265.096 50.64 265.704 51.072C266.312 51.488 267.096 51.696 268.056 51.696C268.648 51.696 269.208 51.632 269.736 51.504C270.28 51.376 270.736 51.248 271.104 51.12L271.512 53.64C271 53.816 270.456 53.96 269.88 54.072C269.304 54.2 268.656 54.264 267.936 54.264C266.976 54.264 266.112 54.144 265.344 53.904C264.592 53.648 263.944 53.28 263.4 52.8C262.872 52.304 262.464 51.696 262.176 50.976C261.888 50.256 261.744 49.416 261.744 48.456ZM269.304 47.28C269.304 46.976 269.264 46.688 269.184 46.416C269.104 46.128 268.976 45.872 268.8 45.648C268.624 45.424 268.4 45.248 268.128 45.12C267.856 44.976 267.52 44.904 267.12 44.904C266.736 44.904 266.4 44.968 266.112 45.096C265.84 45.224 265.608 45.4 265.416 45.624C265.24 45.848 265.096 46.104 264.984 46.392C264.888 46.68 264.824 46.976 264.792 47.28H269.304ZM276.432 45.168H273.864V42.72H276.432V39.888L279.384 39.408V42.72H284.112V45.168H279.384V49.728C279.384 50.144 279.424 50.48 279.504 50.736C279.584 50.992 279.696 51.192 279.84 51.336C279.984 51.48 280.16 51.576 280.368 51.624C280.576 51.672 280.808 51.696 281.064 51.696C281.336 51.696 281.584 51.688 281.808 51.672C282.048 51.656 282.272 51.632 282.48 51.6C282.704 51.552 282.928 51.488 283.152 51.408C283.392 51.328 283.648 51.224 283.92 51.096L284.328 53.64C283.784 53.864 283.192 54.024 282.552 54.12C281.928 54.216 281.32 54.264 280.728 54.264C280.04 54.264 279.432 54.208 278.904 54.096C278.376 53.984 277.928 53.768 277.56 53.448C277.192 53.128 276.912 52.68 276.72 52.104C276.528 51.512 276.432 50.744 276.432 49.8V45.168ZM294.96 37.704V38.88C294.96 39.28 294.936 39.72 294.888 40.2C294.856 40.664 294.8 41.144 294.72 41.64C294.656 42.136 294.584 42.624 294.504 43.104C294.424 43.584 294.344 44.032 294.264 44.448H292.536C292.456 44.032 292.376 43.584 292.296 43.104C292.216 42.624 292.136 42.136 292.056 41.64C291.992 41.144 291.936 40.656 291.888 40.176C291.84 39.696 291.816 39.256 291.816 38.856V37.704H294.96ZM290.232 37.704V38.88C290.232 39.28 290.208 39.72 290.16 40.2C290.128 40.664 290.072 41.144 289.992 41.64C289.928 42.136 289.848 42.624 289.752 43.104C289.672 43.584 289.592 44.032 289.512 44.448H287.808C287.728 44.032 287.648 43.584 287.568 43.104C287.488 42.624 287.408 42.136 287.328 41.64C287.264 41.144 287.208 40.656 287.16 40.176C287.112 39.696 287.088 39.256 287.088 38.856V37.704H290.232ZM310.512 54V37.848L313.464 37.344V42.816C313.704 42.736 313.992 42.664 314.328 42.6C314.664 42.52 314.96 42.48 315.216 42.48C316.048 42.48 316.744 42.608 317.304 42.864C317.864 43.104 318.312 43.456 318.648 43.92C318.984 44.368 319.224 44.912 319.368 45.552C319.512 46.176 319.584 46.872 319.584 47.64V54H316.632V48.024C316.632 46.968 316.512 46.208 316.272 45.744C316.032 45.28 315.576 45.048 314.904 45.048C314.632 45.048 314.36 45.08 314.088 45.144C313.832 45.208 313.624 45.264 313.464 45.312V54H310.512ZM331.488 45.72C331.296 45.672 331.064 45.624 330.792 45.576C330.536 45.528 330.272 45.488 330 45.456C329.728 45.408 329.464 45.376 329.208 45.36C328.952 45.344 328.736 45.336 328.56 45.336C328.144 45.336 327.736 45.36 327.336 45.408C326.936 45.44 326.528 45.512 326.112 45.624V54H323.136V43.464C323.92 43.176 324.72 42.944 325.536 42.768C326.368 42.592 327.336 42.504 328.44 42.504C328.6 42.504 328.824 42.512 329.112 42.528C329.416 42.544 329.736 42.576 330.072 42.624C330.408 42.656 330.744 42.704 331.08 42.768C331.432 42.816 331.744 42.888 332.016 42.984L331.488 45.72ZM333.744 48.456C333.744 47.464 333.896 46.592 334.2 45.84C334.504 45.088 334.904 44.464 335.4 43.968C335.896 43.456 336.464 43.072 337.104 42.816C337.744 42.56 338.4 42.432 339.072 42.432C340.736 42.432 342 42.928 342.864 43.92C343.728 44.896 344.16 46.328 344.16 48.216C344.16 48.408 344.152 48.608 344.136 48.816C344.136 49.024 344.128 49.192 344.112 49.32H336.792C336.792 50.056 337.096 50.64 337.704 51.072C338.312 51.488 339.096 51.696 340.056 51.696C340.648 51.696 341.208 51.632 341.736 51.504C342.28 51.376 342.736 51.248 343.104 51.12L343.512 53.64C343 53.816 342.456 53.96 341.88 54.072C341.304 54.2 340.656 54.264 339.936 54.264C338.976 54.264 338.112 54.144 337.344 53.904C336.592 53.648 335.944 53.28 335.4 52.8C334.872 52.304 334.464 51.696 334.176 50.976C333.888 50.256 333.744 49.416 333.744 48.456ZM341.304 47.28C341.304 46.976 341.264 46.688 341.184 46.416C341.104 46.128 340.976 45.872 340.8 45.648C340.624 45.424 340.4 45.248 340.128 45.12C339.856 44.976 339.52 44.904 339.12 44.904C338.736 44.904 338.4 44.968 338.112 45.096C337.84 45.224 337.608 45.4 337.416 45.624C337.24 45.848 337.096 46.104 336.984 46.392C336.888 46.68 336.824 46.976 336.792 47.28H341.304ZM348.336 54V45.168H345.864V42.72H348.336V42.072C348.336 41.16 348.464 40.408 348.72 39.816C348.992 39.208 349.352 38.728 349.8 38.376C350.248 38.008 350.76 37.752 351.336 37.608C351.912 37.448 352.504 37.368 353.112 37.368C353.736 37.368 354.376 37.424 355.032 37.536C355.688 37.648 356.28 37.832 356.808 38.088L356.304 40.488C355.936 40.36 355.472 40.232 354.912 40.104C354.368 39.96 353.848 39.888 353.352 39.888C353.08 39.888 352.816 39.912 352.56 39.96C352.32 40.008 352.104 40.112 351.912 40.272C351.736 40.432 351.592 40.664 351.48 40.968C351.368 41.256 351.312 41.64 351.312 42.12V42.72H355.944V45.168H351.312V54H348.336ZM357.96 44.136H368.04V46.584H357.96V44.136ZM357.96 48.816H368.04V51.264H357.96V48.816ZM378.96 37.704V38.88C378.96 39.28 378.936 39.72 378.888 40.2C378.856 40.664 378.8 41.144 378.72 41.64C378.656 42.136 378.584 42.624 378.504 43.104C378.424 43.584 378.344 44.032 378.264 44.448H376.536C376.456 44.032 376.376 43.584 376.296 43.104C376.216 42.624 376.136 42.136 376.056 41.64C375.992 41.144 375.936 40.656 375.888 40.176C375.84 39.696 375.816 39.256 375.816 38.856V37.704H378.96ZM374.232 37.704V38.88C374.232 39.28 374.208 39.72 374.16 40.2C374.128 40.664 374.072 41.144 373.992 41.64C373.928 42.136 373.848 42.624 373.752 43.104C373.672 43.584 373.592 44.032 373.512 44.448H371.808C371.728 44.032 371.648 43.584 371.568 43.104C371.488 42.624 371.408 42.136 371.328 41.64C371.264 41.144 371.208 40.656 371.16 40.176C371.112 39.696 371.088 39.256 371.088 38.856V37.704H374.232ZM389.16 52.104C389.16 52.808 388.944 53.344 388.512 53.712C388.08 54.08 387.584 54.264 387.024 54.264C386.736 54.264 386.464 54.216 386.208 54.12C385.952 54.024 385.72 53.888 385.512 53.712C385.32 53.52 385.16 53.296 385.032 53.04C384.92 52.768 384.864 52.456 384.864 52.104C384.864 51.768 384.92 51.472 385.032 51.216C385.16 50.944 385.32 50.72 385.512 50.544C385.72 50.368 385.952 50.232 386.208 50.136C386.464 50.04 386.736 49.992 387.024 49.992C387.584 49.992 388.08 50.176 388.512 50.544C388.944 50.912 389.16 51.432 389.16 52.104ZM397.2 57.96H394.128L400.848 37.224H403.872L397.2 57.96ZM406.056 48.36C406.056 47.544 406.184 46.776 406.44 46.056C406.696 45.336 407.088 44.712 407.616 44.184C408.144 43.64 408.808 43.216 409.608 42.912C410.424 42.592 411.392 42.432 412.512 42.432C413.184 42.432 413.792 42.48 414.336 42.576C414.88 42.672 415.432 42.832 415.992 43.056L415.344 45.432C415.024 45.32 414.664 45.224 414.264 45.144C413.88 45.048 413.384 45 412.776 45C412.072 45 411.48 45.088 411 45.264C410.536 45.424 410.16 45.656 409.872 45.96C409.584 46.248 409.376 46.6 409.248 47.016C409.12 47.432 409.056 47.88 409.056 48.36C409.056 49.4 409.344 50.216 409.92 50.808C410.512 51.4 411.512 51.696 412.92 51.696C413.384 51.696 413.864 51.664 414.36 51.6C414.872 51.536 415.336 51.432 415.752 51.288L416.184 53.712C415.768 53.872 415.264 54 414.672 54.096C414.08 54.208 413.384 54.264 412.584 54.264C411.432 54.264 410.44 54.112 409.608 53.808C408.792 53.504 408.12 53.088 407.592 52.56C407.064 52.032 406.672 51.408 406.416 50.688C406.176 49.968 406.056 49.192 406.056 48.36ZM422.472 51.768C423.192 51.768 423.744 51.72 424.128 51.624C424.512 51.512 424.704 51.296 424.704 50.976C424.704 50.768 424.64 50.592 424.512 50.448C424.4 50.304 424.232 50.184 424.008 50.088C423.8 49.976 423.552 49.872 423.264 49.776C422.992 49.68 422.704 49.584 422.4 49.488C421.968 49.36 421.528 49.216 421.08 49.056C420.632 48.88 420.224 48.664 419.856 48.408C419.488 48.152 419.184 47.832 418.944 47.448C418.704 47.048 418.584 46.552 418.584 45.96C418.584 45.48 418.672 45.032 418.848 44.616C419.04 44.184 419.328 43.808 419.712 43.488C420.112 43.152 420.616 42.896 421.224 42.72C421.832 42.528 422.56 42.432 423.408 42.432C424.144 42.432 424.824 42.488 425.448 42.6C426.088 42.712 426.64 42.872 427.104 43.08L426.648 45.576C426.376 45.496 425.952 45.368 425.376 45.192C424.8 45 424.152 44.904 423.432 44.904C422.68 44.904 422.168 45 421.896 45.192C421.64 45.368 421.512 45.56 421.512 45.768C421.512 45.944 421.568 46.104 421.68 46.248C421.808 46.376 421.968 46.496 422.16 46.608C422.368 46.72 422.6 46.832 422.856 46.944C423.128 47.04 423.416 47.136 423.72 47.232C424.152 47.376 424.6 47.536 425.064 47.712C425.528 47.888 425.944 48.112 426.312 48.384C426.696 48.64 427.008 48.976 427.248 49.392C427.488 49.792 427.608 50.288 427.608 50.88C427.608 51.344 427.52 51.784 427.344 52.2C427.168 52.616 426.872 52.976 426.456 53.28C426.056 53.584 425.528 53.824 424.872 54C424.216 54.176 423.408 54.264 422.448 54.264C421.472 54.264 420.64 54.152 419.952 53.928C419.264 53.704 418.712 53.504 418.296 53.328L418.752 50.856C419.312 51.08 419.904 51.288 420.528 51.48C421.168 51.672 421.816 51.768 422.472 51.768ZM434.472 51.768C435.192 51.768 435.744 51.72 436.128 51.624C436.512 51.512 436.704 51.296 436.704 50.976C436.704 50.768 436.64 50.592 436.512 50.448C436.4 50.304 436.232 50.184 436.008 50.088C435.8 49.976 435.552 49.872 435.264 49.776C434.992 49.68 434.704 49.584 434.4 49.488C433.968 49.36 433.528 49.216 433.08 49.056C432.632 48.88 432.224 48.664 431.856 48.408C431.488 48.152 431.184 47.832 430.944 47.448C430.704 47.048 430.584 46.552 430.584 45.96C430.584 45.48 430.672 45.032 430.848 44.616C431.04 44.184 431.328 43.808 431.712 43.488C432.112 43.152 432.616 42.896 433.224 42.72C433.832 42.528 434.56 42.432 435.408 42.432C436.144 42.432 436.824 42.488 437.448 42.6C438.088 42.712 438.64 42.872 439.104 43.08L438.648 45.576C438.376 45.496 437.952 45.368 437.376 45.192C436.8 45 436.152 44.904 435.432 44.904C434.68 44.904 434.168 45 433.896 45.192C433.64 45.368 433.512 45.56 433.512 45.768C433.512 45.944 433.568 46.104 433.68 46.248C433.808 46.376 433.968 46.496 434.16 46.608C434.368 46.72 434.6 46.832 434.856 46.944C435.128 47.04 435.416 47.136 435.72 47.232C436.152 47.376 436.6 47.536 437.064 47.712C437.528 47.888 437.944 48.112 438.312 48.384C438.696 48.64 439.008 48.976 439.248 49.392C439.488 49.792 439.608 50.288 439.608 50.88C439.608 51.344 439.52 51.784 439.344 52.2C439.168 52.616 438.872 52.976 438.456 53.28C438.056 53.584 437.528 53.824 436.872 54C436.216 54.176 435.408 54.264 434.448 54.264C433.472 54.264 432.64 54.152 431.952 53.928C431.264 53.704 430.712 53.504 430.296 53.328L430.752 50.856C431.312 51.08 431.904 51.288 432.528 51.48C433.168 51.672 433.816 51.768 434.472 51.768ZM445.2 57.96H442.128L448.848 37.224H451.872L445.2 57.96ZM458.472 51.768C459.192 51.768 459.744 51.72 460.128 51.624C460.512 51.512 460.704 51.296 460.704 50.976C460.704 50.768 460.64 50.592 460.512 50.448C460.4 50.304 460.232 50.184 460.008 50.088C459.8 49.976 459.552 49.872 459.264 49.776C458.992 49.68 458.704 49.584 458.4 49.488C457.968 49.36 457.528 49.216 457.08 49.056C456.632 48.88 456.224 48.664 455.856 48.408C455.488 48.152 455.184 47.832 454.944 47.448C454.704 47.048 454.584 46.552 454.584 45.96C454.584 45.48 454.672 45.032 454.848 44.616C455.04 44.184 455.328 43.808 455.712 43.488C456.112 43.152 456.616 42.896 457.224 42.72C457.832 42.528 458.56 42.432 459.408 42.432C460.144 42.432 460.824 42.488 461.448 42.6C462.088 42.712 462.64 42.872 463.104 43.08L462.648 45.576C462.376 45.496 461.952 45.368 461.376 45.192C460.8 45 460.152 44.904 459.432 44.904C458.68 44.904 458.168 45 457.896 45.192C457.64 45.368 457.512 45.56 457.512 45.768C457.512 45.944 457.568 46.104 457.68 46.248C457.808 46.376 457.968 46.496 458.16 46.608C458.368 46.72 458.6 46.832 458.856 46.944C459.128 47.04 459.416 47.136 459.72 47.232C460.152 47.376 460.6 47.536 461.064 47.712C461.528 47.888 461.944 48.112 462.312 48.384C462.696 48.64 463.008 48.976 463.248 49.392C463.488 49.792 463.608 50.288 463.608 50.88C463.608 51.344 463.52 51.784 463.344 52.2C463.168 52.616 462.872 52.976 462.456 53.28C462.056 53.584 461.528 53.824 460.872 54C460.216 54.176 459.408 54.264 458.448 54.264C457.472 54.264 456.64 54.152 455.952 53.928C455.264 53.704 454.712 53.504 454.296 53.328L454.752 50.856C455.312 51.08 455.904 51.288 456.528 51.48C457.168 51.672 457.816 51.768 458.472 51.768ZM468.432 45.168H465.864V42.72H468.432V39.888L471.384 39.408V42.72H476.112V45.168H471.384V49.728C471.384 50.144 471.424 50.48 471.504 50.736C471.584 50.992 471.696 51.192 471.84 51.336C471.984 51.48 472.16 51.576 472.368 51.624C472.576 51.672 472.808 51.696 473.064 51.696C473.336 51.696 473.584 51.688 473.808 51.672C474.048 51.656 474.272 51.632 474.48 51.6C474.704 51.552 474.928 51.488 475.152 51.408C475.392 51.328 475.648 51.224 475.92 51.096L476.328 53.64C475.784 53.864 475.192 54.024 474.552 54.12C473.928 54.216 473.32 54.264 472.728 54.264C472.04 54.264 471.432 54.208 470.904 54.096C470.376 53.984 469.928 53.768 469.56 53.448C469.192 53.128 468.912 52.68 468.72 52.104C468.528 51.512 468.432 50.744 468.432 49.8V45.168ZM488.328 42.72C488.024 43.776 487.728 44.816 487.44 45.84C487.168 46.848 486.88 47.84 486.576 48.816C486.272 49.776 485.944 50.72 485.592 51.648C485.256 52.576 484.888 53.48 484.488 54.36C484.184 55 483.88 55.552 483.576 56.016C483.288 56.48 482.96 56.856 482.592 57.144C482.24 57.448 481.84 57.672 481.392 57.816C480.96 57.96 480.448 58.032 479.856 58.032C479.36 58.032 478.904 57.992 478.488 57.912C478.088 57.832 477.752 57.728 477.48 57.6L478.032 55.128C478.352 55.272 478.632 55.368 478.872 55.416C479.128 55.48 479.4 55.512 479.688 55.512C480.264 55.512 480.728 55.32 481.08 54.936C481.432 54.552 481.712 54.096 481.92 53.568C481.216 52.16 480.512 50.552 479.808 48.744C479.104 46.92 478.464 44.912 477.888 42.72H480.96C481.104 43.312 481.264 43.944 481.44 44.616C481.632 45.288 481.832 45.96 482.04 46.632C482.248 47.304 482.464 47.968 482.688 48.624C482.928 49.264 483.168 49.864 483.408 50.424C483.568 49.864 483.736 49.264 483.912 48.624C484.088 47.968 484.256 47.312 484.416 46.656C484.576 45.984 484.728 45.312 484.872 44.64C485.032 43.968 485.176 43.328 485.304 42.72H488.328ZM500.208 53.52C500.16 53.552 500.048 53.608 499.872 53.688C499.712 53.768 499.496 53.856 499.224 53.952C498.952 54.032 498.616 54.104 498.216 54.168C497.832 54.232 497.392 54.264 496.896 54.264C495.536 54.264 494.544 53.864 493.92 53.064C493.296 52.248 492.984 51.064 492.984 49.512V39.936H489.864V37.488H495.936V49.728C495.936 50.496 496.088 51.016 496.392 51.288C496.696 51.56 497.08 51.696 497.544 51.696C498.136 51.696 498.632 51.616 499.032 51.456C499.432 51.296 499.696 51.192 499.824 51.144L500.208 53.52ZM501.744 48.456C501.744 47.464 501.896 46.592 502.2 45.84C502.504 45.088 502.904 44.464 503.4 43.968C503.896 43.456 504.464 43.072 505.104 42.816C505.744 42.56 506.4 42.432 507.072 42.432C508.736 42.432 510 42.928 510.864 43.92C511.728 44.896 512.16 46.328 512.16 48.216C512.16 48.408 512.152 48.608 512.136 48.816C512.136 49.024 512.128 49.192 512.112 49.32H504.792C504.792 50.056 505.096 50.64 505.704 51.072C506.312 51.488 507.096 51.696 508.056 51.696C508.648 51.696 509.208 51.632 509.736 51.504C510.28 51.376 510.736 51.248 511.104 51.12L511.512 53.64C511 53.816 510.456 53.96 509.88 54.072C509.304 54.2 508.656 54.264 507.936 54.264C506.976 54.264 506.112 54.144 505.344 53.904C504.592 53.648 503.944 53.28 503.4 52.8C502.872 52.304 502.464 51.696 502.176 50.976C501.888 50.256 501.744 49.416 501.744 48.456ZM509.304 47.28C509.304 46.976 509.264 46.688 509.184 46.416C509.104 46.128 508.976 45.872 508.8 45.648C508.624 45.424 508.4 45.248 508.128 45.12C507.856 44.976 507.52 44.904 507.12 44.904C506.736 44.904 506.4 44.968 506.112 45.096C505.84 45.224 505.608 45.4 505.416 45.624C505.24 45.848 505.096 46.104 504.984 46.392C504.888 46.68 504.824 46.976 504.792 47.28H509.304ZM521.16 52.104C521.16 52.808 520.944 53.344 520.512 53.712C520.08 54.08 519.584 54.264 519.024 54.264C518.736 54.264 518.464 54.216 518.208 54.12C517.952 54.024 517.72 53.888 517.512 53.712C517.32 53.52 517.16 53.296 517.032 53.04C516.92 52.768 516.864 52.456 516.864 52.104C516.864 51.768 516.92 51.472 517.032 51.216C517.16 50.944 517.32 50.72 517.512 50.544C517.72 50.368 517.952 50.232 518.208 50.136C518.464 50.04 518.736 49.992 519.024 49.992C519.584 49.992 520.08 50.176 520.512 50.544C520.944 50.912 521.16 51.432 521.16 52.104ZM526.056 48.36C526.056 47.544 526.184 46.776 526.44 46.056C526.696 45.336 527.088 44.712 527.616 44.184C528.144 43.64 528.808 43.216 529.608 42.912C530.424 42.592 531.392 42.432 532.512 42.432C533.184 42.432 533.792 42.48 534.336 42.576C534.88 42.672 535.432 42.832 535.992 43.056L535.344 45.432C535.024 45.32 534.664 45.224 534.264 45.144C533.88 45.048 533.384 45 532.776 45C532.072 45 531.48 45.088 531 45.264C530.536 45.424 530.16 45.656 529.872 45.96C529.584 46.248 529.376 46.6 529.248 47.016C529.12 47.432 529.056 47.88 529.056 48.36C529.056 49.4 529.344 50.216 529.92 50.808C530.512 51.4 531.512 51.696 532.92 51.696C533.384 51.696 533.864 51.664 534.36 51.6C534.872 51.536 535.336 51.432 535.752 51.288L536.184 53.712C535.768 53.872 535.264 54 534.672 54.096C534.08 54.208 533.384 54.264 532.584 54.264C531.432 54.264 530.44 54.112 529.608 53.808C528.792 53.504 528.12 53.088 527.592 52.56C527.064 52.032 526.672 51.408 526.416 50.688C526.176 49.968 526.056 49.192 526.056 48.36ZM542.472 51.768C543.192 51.768 543.744 51.72 544.128 51.624C544.512 51.512 544.704 51.296 544.704 50.976C544.704 50.768 544.64 50.592 544.512 50.448C544.4 50.304 544.232 50.184 544.008 50.088C543.8 49.976 543.552 49.872 543.264 49.776C542.992 49.68 542.704 49.584 542.4 49.488C541.968 49.36 541.528 49.216 541.08 49.056C540.632 48.88 540.224 48.664 539.856 48.408C539.488 48.152 539.184 47.832 538.944 47.448C538.704 47.048 538.584 46.552 538.584 45.96C538.584 45.48 538.672 45.032 538.848 44.616C539.04 44.184 539.328 43.808 539.712 43.488C540.112 43.152 540.616 42.896 541.224 42.72C541.832 42.528 542.56 42.432 543.408 42.432C544.144 42.432 544.824 42.488 545.448 42.6C546.088 42.712 546.64 42.872 547.104 43.08L546.648 45.576C546.376 45.496 545.952 45.368 545.376 45.192C544.8 45 544.152 44.904 543.432 44.904C542.68 44.904 542.168 45 541.896 45.192C541.64 45.368 541.512 45.56 541.512 45.768C541.512 45.944 541.568 46.104 541.68 46.248C541.808 46.376 541.968 46.496 542.16 46.608C542.368 46.72 542.6 46.832 542.856 46.944C543.128 47.04 543.416 47.136 543.72 47.232C544.152 47.376 544.6 47.536 545.064 47.712C545.528 47.888 545.944 48.112 546.312 48.384C546.696 48.64 547.008 48.976 547.248 49.392C547.488 49.792 547.608 50.288 547.608 50.88C547.608 51.344 547.52 51.784 547.344 52.2C547.168 52.616 546.872 52.976 546.456 53.28C546.056 53.584 545.528 53.824 544.872 54C544.216 54.176 543.408 54.264 542.448 54.264C541.472 54.264 540.64 54.152 539.952 53.928C539.264 53.704 538.712 53.504 538.296 53.328L538.752 50.856C539.312 51.08 539.904 51.288 540.528 51.48C541.168 51.672 541.816 51.768 542.472 51.768ZM554.472 51.768C555.192 51.768 555.744 51.72 556.128 51.624C556.512 51.512 556.704 51.296 556.704 50.976C556.704 50.768 556.64 50.592 556.512 50.448C556.4 50.304 556.232 50.184 556.008 50.088C555.8 49.976 555.552 49.872 555.264 49.776C554.992 49.68 554.704 49.584 554.4 49.488C553.968 49.36 553.528 49.216 553.08 49.056C552.632 48.88 552.224 48.664 551.856 48.408C551.488 48.152 551.184 47.832 550.944 47.448C550.704 47.048 550.584 46.552 550.584 45.96C550.584 45.48 550.672 45.032 550.848 44.616C551.04 44.184 551.328 43.808 551.712 43.488C552.112 43.152 552.616 42.896 553.224 42.72C553.832 42.528 554.56 42.432 555.408 42.432C556.144 42.432 556.824 42.488 557.448 42.6C558.088 42.712 558.64 42.872 559.104 43.08L558.648 45.576C558.376 45.496 557.952 45.368 557.376 45.192C556.8 45 556.152 44.904 555.432 44.904C554.68 44.904 554.168 45 553.896 45.192C553.64 45.368 553.512 45.56 553.512 45.768C553.512 45.944 553.568 46.104 553.68 46.248C553.808 46.376 553.968 46.496 554.16 46.608C554.368 46.72 554.6 46.832 554.856 46.944C555.128 47.04 555.416 47.136 555.72 47.232C556.152 47.376 556.6 47.536 557.064 47.712C557.528 47.888 557.944 48.112 558.312 48.384C558.696 48.64 559.008 48.976 559.248 49.392C559.488 49.792 559.608 50.288 559.608 50.88C559.608 51.344 559.52 51.784 559.344 52.2C559.168 52.616 558.872 52.976 558.456 53.28C558.056 53.584 557.528 53.824 556.872 54C556.216 54.176 555.408 54.264 554.448 54.264C553.472 54.264 552.64 54.152 551.952 53.928C551.264 53.704 550.712 53.504 550.296 53.328L550.752 50.856C551.312 51.08 551.904 51.288 552.528 51.48C553.168 51.672 553.816 51.768 554.472 51.768ZM570.96 37.704V38.88C570.96 39.28 570.936 39.72 570.888 40.2C570.856 40.664 570.8 41.144 570.72 41.64C570.656 42.136 570.584 42.624 570.504 43.104C570.424 43.584 570.344 44.032 570.264 44.448H568.536C568.456 44.032 568.376 43.584 568.296 43.104C568.216 42.624 568.136 42.136 568.056 41.64C567.992 41.144 567.936 40.656 567.888 40.176C567.84 39.696 567.816 39.256 567.816 38.856V37.704H570.96ZM566.232 37.704V38.88C566.232 39.28 566.208 39.72 566.16 40.2C566.128 40.664 566.072 41.144 565.992 41.64C565.928 42.136 565.848 42.624 565.752 43.104C565.672 43.584 565.592 44.032 565.512 44.448H563.808C563.728 44.032 563.648 43.584 563.568 43.104C563.488 42.624 563.408 42.136 563.328 41.64C563.264 41.144 563.208 40.656 563.16 40.176C563.112 39.696 563.088 39.256 563.088 38.856V37.704H566.232ZM584.016 49.176L574.8 53.064L573.96 50.472L580.704 47.856L573.96 45.24L574.8 42.648L584.016 46.512V49.176Z" fill="#404040"/>
</svg>
