<svg width="1115" height="241" viewBox="0 0 1115 241" fill="none" xmlns="http://www.w3.org/2000/svg">
<rect width="1115" height="241" fill="#F1F1F1"/>
<path d="M26.032 26.048L29.104 16.192H31.568C31.9947 19.3067 32.2933 22.496 32.464 25.76C32.656 29.024 32.8267 32.4373 32.976 36H30.416C30.3947 34.848 30.3733 33.6 30.352 32.256C30.3307 30.912 30.2987 29.5253 30.256 28.096C30.2347 26.6667 30.2027 25.216 30.16 23.744C30.1387 22.272 30.1067 20.8427 30.064 19.456L27.184 28.48H24.88L21.936 19.456C21.9147 20.8427 21.8827 22.272 21.84 23.744C21.8187 25.1947 21.7867 26.6453 21.744 28.096C21.7227 29.5253 21.6907 30.912 21.648 32.256C21.6267 33.6 21.6053 34.848 21.584 36H19.024C19.088 34.3787 19.1627 32.7147 19.248 31.008C19.3333 29.3013 19.4293 27.6053 19.536 25.92C19.664 24.2347 19.8027 22.5707 19.952 20.928C20.1227 19.2853 20.304 17.7067 20.496 16.192H22.928L26.032 26.048ZM35.632 38.784C35.824 38.8907 36.0907 38.976 36.432 39.04C36.7947 39.104 37.1253 39.136 37.424 39.136C38.4693 39.136 39.28 38.9013 39.856 38.432C40.4533 37.984 40.9973 37.2373 41.488 36.192C40.2933 33.9307 39.1733 31.5093 38.128 28.928C37.0827 26.3253 36.2187 23.7333 35.536 21.152H38.416C38.6293 22.0053 38.8747 22.9333 39.152 23.936C39.4507 24.9173 39.7813 25.9307 40.144 26.976C40.5067 28.0213 40.8907 29.0773 41.296 30.144C41.7227 31.1893 42.1707 32.192 42.64 33.152C42.9813 32.1707 43.3013 31.2 43.6 30.24C43.8987 29.28 44.176 28.32 44.432 27.36C44.688 26.3787 44.944 25.3867 45.2 24.384C45.456 23.36 45.7227 22.2827 46 21.152H48.752C48.0693 23.9253 47.3013 26.6133 46.448 29.216C45.616 31.8187 44.72 34.2293 43.76 36.448C43.3973 37.3013 43.0027 38.0373 42.576 38.656C42.1707 39.2747 41.7227 39.7867 41.232 40.192C40.7413 40.5973 40.1867 40.896 39.568 41.088C38.9493 41.28 38.2453 41.376 37.456 41.376C37.0507 41.376 36.6027 41.3227 36.112 41.216C35.6427 41.1093 35.3227 41.0133 35.152 40.928L35.632 38.784ZM52.912 36V16.192H64.144V18.432H55.536V24.608H63.12V26.816H55.536V36H52.912ZM72.688 18.848C72.1333 18.848 71.6533 18.656 71.248 18.272C70.8427 17.888 70.64 17.3653 70.64 16.704C70.64 16.0427 70.8427 15.52 71.248 15.136C71.6533 14.752 72.1333 14.56 72.688 14.56C73.264 14.56 73.744 14.752 74.128 15.136C74.5333 15.52 74.736 16.0427 74.736 16.704C74.736 17.3653 74.5333 17.888 74.128 18.272C73.744 18.656 73.264 18.848 72.688 18.848ZM72.016 23.36H67.728V21.152H74.64V30.272C74.64 31.744 74.8427 32.736 75.248 33.248C75.6533 33.7387 76.2613 33.984 77.072 33.984C77.6907 33.984 78.256 33.9093 78.768 33.76C79.3013 33.6107 79.7173 33.4507 80.016 33.28L80.4 35.52C80.272 35.584 80.0907 35.6693 79.856 35.776C79.6213 35.8613 79.344 35.9467 79.024 36.032C78.7253 36.1173 78.384 36.192 78 36.256C77.6373 36.32 77.2533 36.352 76.848 36.352C75.9093 36.352 75.1307 36.224 74.512 35.968C73.8933 35.712 73.392 35.328 73.008 34.816C72.6453 34.304 72.3893 33.6747 72.24 32.928C72.0907 32.16 72.016 31.2747 72.016 30.272V23.36ZM85.424 36V21.952C87.6 21.2053 89.7973 20.832 92.016 20.832C92.6987 20.832 93.3493 20.864 93.968 20.928C94.5867 20.9707 95.2693 21.0773 96.016 21.248L95.536 23.584C94.8533 23.392 94.2453 23.2747 93.712 23.232C93.2 23.168 92.6347 23.136 92.016 23.136C90.7147 23.136 89.392 23.3173 88.048 23.68V36H85.424ZM109.232 32.288C109.232 31.7547 109.008 31.3173 108.56 30.976C108.133 30.6347 107.589 30.336 106.928 30.08C106.288 29.824 105.584 29.5787 104.816 29.344C104.048 29.088 103.333 28.7787 102.672 28.416C102.032 28.0533 101.488 27.6053 101.04 27.072C100.613 26.5387 100.4 25.8453 100.4 24.992C100.4 23.7973 100.88 22.8053 101.84 22.016C102.821 21.2053 104.347 20.8 106.416 20.8C107.227 20.8 108.059 20.864 108.912 20.992C109.787 21.0987 110.533 21.248 111.152 21.44L110.672 23.808C110.501 23.7227 110.267 23.6373 109.968 23.552C109.669 23.4453 109.328 23.36 108.944 23.296C108.56 23.2107 108.144 23.1467 107.696 23.104C107.269 23.0613 106.853 23.04 106.448 23.04C104.144 23.04 102.992 23.6693 102.992 24.928C102.992 25.376 103.205 25.76 103.632 26.08C104.08 26.3787 104.635 26.656 105.296 26.912C105.957 27.168 106.672 27.4347 107.44 27.712C108.208 27.968 108.923 28.288 109.584 28.672C110.245 29.056 110.789 29.5253 111.216 30.08C111.664 30.6133 111.888 31.296 111.888 32.128C111.888 33.472 111.365 34.5173 110.32 35.264C109.275 35.9893 107.621 36.352 105.36 36.352C104.336 36.352 103.397 36.2667 102.544 36.096C101.691 35.9253 100.88 35.6693 100.112 35.328L100.624 32.928C101.371 33.2693 102.149 33.5573 102.96 33.792C103.792 34.0053 104.677 34.112 105.616 34.112C108.027 34.112 109.232 33.504 109.232 32.288ZM121.776 21.152H128.048V23.36H121.776V30.272C121.776 31.0187 121.829 31.6267 121.936 32.096C122.043 32.5653 122.213 32.9493 122.448 33.248C122.704 33.5253 123.024 33.7173 123.408 33.824C123.792 33.9307 124.261 33.984 124.816 33.984C125.584 33.984 126.203 33.92 126.672 33.792C127.141 33.664 127.589 33.4933 128.016 33.28L128.4 35.52C128.101 35.648 127.621 35.8187 126.96 36.032C126.32 36.2453 125.52 36.352 124.56 36.352C123.451 36.352 122.544 36.224 121.84 35.968C121.136 35.712 120.581 35.328 120.176 34.816C119.792 34.304 119.525 33.6747 119.376 32.928C119.227 32.16 119.152 31.2747 119.152 30.272V23.36H116.016V21.152H119.152V16.992L121.776 16.544V21.152ZM137.488 34.144C138.832 34.144 139.856 33.888 140.56 33.376C141.264 32.864 141.616 32.096 141.616 31.072C141.616 30.4533 141.488 29.9307 141.232 29.504C140.976 29.056 140.635 28.672 140.208 28.352C139.781 28.0107 139.301 27.7227 138.768 27.488C138.235 27.232 137.691 26.9973 137.136 26.784C136.496 26.528 135.877 26.24 135.28 25.92C134.704 25.6 134.181 25.2267 133.712 24.8C133.264 24.3733 132.901 23.872 132.624 23.296C132.368 22.72 132.24 22.0373 132.24 21.248C132.24 19.52 132.784 18.176 133.872 17.216C134.96 16.2347 136.475 15.744 138.416 15.744C138.949 15.744 139.472 15.7867 139.984 15.872C140.517 15.936 141.008 16.0213 141.456 16.128C141.904 16.2347 142.299 16.3627 142.64 16.512C143.003 16.6613 143.291 16.8107 143.504 16.96L142.672 19.168C142.245 18.912 141.659 18.656 140.912 18.4C140.165 18.144 139.333 18.016 138.416 18.016C137.456 18.016 136.624 18.2613 135.92 18.752C135.216 19.2213 134.864 19.936 134.864 20.896C134.864 21.4507 134.96 21.92 135.152 22.304C135.365 22.688 135.643 23.0293 135.984 23.328C136.347 23.6053 136.763 23.8613 137.232 24.096C137.701 24.3307 138.213 24.5653 138.768 24.8C139.579 25.1413 140.315 25.4827 140.976 25.824C141.659 26.1653 142.235 26.5707 142.704 27.04C143.195 27.5093 143.568 28.064 143.824 28.704C144.101 29.344 144.24 30.1227 144.24 31.04C144.24 32.768 143.653 34.1013 142.48 35.04C141.328 35.9573 139.664 36.416 137.488 36.416C136.784 36.416 136.123 36.3627 135.504 36.256C134.885 36.1707 134.331 36.0533 133.84 35.904C133.371 35.7547 132.955 35.6053 132.592 35.456C132.229 35.3067 131.952 35.168 131.76 35.04L132.56 32.864C132.987 33.0987 133.616 33.376 134.448 33.696C135.28 33.9947 136.293 34.144 137.488 34.144ZM152.688 18.848C152.133 18.848 151.653 18.656 151.248 18.272C150.843 17.888 150.64 17.3653 150.64 16.704C150.64 16.0427 150.843 15.52 151.248 15.136C151.653 14.752 152.133 14.56 152.688 14.56C153.264 14.56 153.744 14.752 154.128 15.136C154.533 15.52 154.736 16.0427 154.736 16.704C154.736 17.3653 154.533 17.888 154.128 18.272C153.744 18.656 153.264 18.848 152.688 18.848ZM152.016 23.36H147.728V21.152H154.64V30.272C154.64 31.744 154.843 32.736 155.248 33.248C155.653 33.7387 156.261 33.984 157.072 33.984C157.691 33.984 158.256 33.9093 158.768 33.76C159.301 33.6107 159.717 33.4507 160.016 33.28L160.4 35.52C160.272 35.584 160.091 35.6693 159.856 35.776C159.621 35.8613 159.344 35.9467 159.024 36.032C158.725 36.1173 158.384 36.192 158 36.256C157.637 36.32 157.253 36.352 156.848 36.352C155.909 36.352 155.131 36.224 154.512 35.968C153.893 35.712 153.392 35.328 153.008 34.816C152.645 34.304 152.389 33.6747 152.24 32.928C152.091 32.16 152.016 31.2747 152.016 30.272V23.36ZM169.776 21.152H176.048V23.36H169.776V30.272C169.776 31.0187 169.829 31.6267 169.936 32.096C170.043 32.5653 170.213 32.9493 170.448 33.248C170.704 33.5253 171.024 33.7173 171.408 33.824C171.792 33.9307 172.261 33.984 172.816 33.984C173.584 33.984 174.203 33.92 174.672 33.792C175.141 33.664 175.589 33.4933 176.016 33.28L176.4 35.52C176.101 35.648 175.621 35.8187 174.96 36.032C174.32 36.2453 173.52 36.352 172.56 36.352C171.451 36.352 170.544 36.224 169.84 35.968C169.136 35.712 168.581 35.328 168.176 34.816C167.792 34.304 167.525 33.6747 167.376 32.928C167.227 32.16 167.152 31.2747 167.152 30.272V23.36H164.016V21.152H167.152V16.992L169.776 16.544V21.152ZM186.288 20.8C188.293 20.8 189.84 21.4293 190.928 22.688C192.016 23.9253 192.56 25.8133 192.56 28.352V29.28H181.936C182.043 30.816 182.544 31.9893 183.44 32.8C184.357 33.5893 185.637 33.984 187.28 33.984C188.219 33.984 189.019 33.9093 189.68 33.76C190.341 33.6107 190.843 33.4507 191.184 33.28L191.536 35.52C191.216 35.6907 190.64 35.872 189.808 36.064C188.976 36.256 188.037 36.352 186.992 36.352C185.712 36.352 184.581 36.16 183.6 35.776C182.64 35.3707 181.84 34.8267 181.2 34.144C180.56 33.4613 180.08 32.6507 179.76 31.712C179.44 30.752 179.28 29.7173 179.28 28.608C179.28 27.2853 179.483 26.1333 179.888 25.152C180.293 24.1707 180.827 23.36 181.488 22.72C182.149 22.08 182.896 21.6 183.728 21.28C184.56 20.96 185.413 20.8 186.288 20.8ZM189.872 27.136C189.872 25.8773 189.541 24.8853 188.88 24.16C188.219 23.4133 187.344 23.04 186.256 23.04C185.637 23.04 185.072 23.1573 184.56 23.392C184.069 23.6267 183.643 23.936 183.28 24.32C182.917 24.704 182.629 25.1413 182.416 25.632C182.203 26.1227 182.064 26.624 182 27.136H189.872ZM198.928 41.28H196.208L205.136 13.632H207.792L198.928 41.28ZM27.28 73.44H24.72V41.44H27.28V73.44ZM34 58.72V56.16H50V58.72H34ZM50 58.72V56.16H66V58.72H50ZM88.688 50.848C88.1333 50.848 87.6533 50.656 87.248 50.272C86.8427 49.888 86.64 49.3653 86.64 48.704C86.64 48.0427 86.8427 47.52 87.248 47.136C87.6533 46.752 88.1333 46.56 88.688 46.56C89.264 46.56 89.744 46.752 90.128 47.136C90.5333 47.52 90.736 48.0427 90.736 48.704C90.736 49.3653 90.5333 49.888 90.128 50.272C89.744 50.656 89.264 50.848 88.688 50.848ZM88.016 55.36H83.728V53.152H90.64V62.272C90.64 63.744 90.8427 64.736 91.248 65.248C91.6533 65.7387 92.2613 65.984 93.072 65.984C93.6907 65.984 94.256 65.9093 94.768 65.76C95.3013 65.6107 95.7173 65.4507 96.016 65.28L96.4 67.52C96.272 67.584 96.0907 67.6693 95.856 67.776C95.6213 67.8613 95.344 67.9467 95.024 68.032C94.7253 68.1173 94.384 68.192 94 68.256C93.6373 68.32 93.2533 68.352 92.848 68.352C91.9093 68.352 91.1307 68.224 90.512 67.968C89.8933 67.712 89.392 67.328 89.008 66.816C88.6453 66.304 88.3893 65.6747 88.24 64.928C88.0907 64.16 88.016 63.2747 88.016 62.272V55.36ZM100.272 53.568C101.232 53.3333 102.181 53.152 103.12 53.024C104.08 52.896 104.976 52.832 105.808 52.832C107.792 52.832 109.285 53.344 110.288 54.368C111.312 55.392 111.824 57.0347 111.824 59.296V68H109.2V59.776C109.2 58.816 109.115 58.0373 108.944 57.44C108.773 56.8427 108.528 56.384 108.208 56.064C107.909 55.7227 107.536 55.488 107.088 55.36C106.661 55.232 106.192 55.168 105.68 55.168C105.253 55.168 104.795 55.2 104.304 55.264C103.835 55.3067 103.376 55.3707 102.928 55.456V68H100.272V53.568ZM125.072 56.288C124.773 56.0107 124.336 55.7547 123.76 55.52C123.184 55.264 122.587 55.136 121.968 55.136C121.264 55.136 120.656 55.2747 120.144 55.552C119.653 55.8293 119.248 56.2133 118.928 56.704C118.608 57.1733 118.373 57.7493 118.224 58.432C118.075 59.0933 118 59.808 118 60.576C118 62.304 118.405 63.6373 119.216 64.576C120.027 65.5147 121.083 65.984 122.384 65.984C123.045 65.984 123.6 65.952 124.048 65.888C124.517 65.824 124.859 65.76 125.072 65.696V56.288ZM125.072 46.272L127.728 45.824V67.584C127.152 67.7547 126.416 67.9253 125.52 68.096C124.624 68.2667 123.579 68.352 122.384 68.352C121.317 68.352 120.347 68.1707 119.472 67.808C118.597 67.4453 117.851 66.9333 117.232 66.272C116.613 65.5893 116.133 64.768 115.792 63.808C115.451 62.848 115.28 61.7707 115.28 60.576C115.28 59.424 115.419 58.3787 115.696 57.44C115.995 56.48 116.421 55.6587 116.976 54.976C117.531 54.2933 118.192 53.76 118.96 53.376C119.749 52.992 120.645 52.8 121.648 52.8C122.437 52.8 123.131 52.896 123.728 53.088C124.325 53.28 124.773 53.4827 125.072 53.696V46.272ZM138.288 52.8C140.293 52.8 141.84 53.4293 142.928 54.688C144.016 55.9253 144.56 57.8133 144.56 60.352V61.28H133.936C134.043 62.816 134.544 63.9893 135.44 64.8C136.357 65.5893 137.637 65.984 139.28 65.984C140.219 65.984 141.019 65.9093 141.68 65.76C142.341 65.6107 142.843 65.4507 143.184 65.28L143.536 67.52C143.216 67.6907 142.64 67.872 141.808 68.064C140.976 68.256 140.037 68.352 138.992 68.352C137.712 68.352 136.581 68.16 135.6 67.776C134.64 67.3707 133.84 66.8267 133.2 66.144C132.56 65.4613 132.08 64.6507 131.76 63.712C131.44 62.752 131.28 61.7173 131.28 60.608C131.28 59.2853 131.483 58.1333 131.888 57.152C132.293 56.1707 132.827 55.36 133.488 54.72C134.149 54.08 134.896 53.6 135.728 53.28C136.56 52.96 137.413 52.8 138.288 52.8ZM141.872 59.136C141.872 57.8773 141.541 56.8853 140.88 56.16C140.219 55.4133 139.344 55.04 138.256 55.04C137.637 55.04 137.072 55.1573 136.56 55.392C136.069 55.6267 135.643 55.936 135.28 56.32C134.917 56.704 134.629 57.1413 134.416 57.632C134.203 58.1227 134.064 58.624 134 59.136H141.872ZM158.16 68C157.947 67.5733 157.68 67.104 157.36 66.592C157.061 66.08 156.731 65.5573 156.368 65.024C156.005 64.4693 155.621 63.9253 155.216 63.392C154.832 62.8587 154.448 62.3573 154.064 61.888C153.68 62.3787 153.275 62.8907 152.848 63.424C152.421 63.9573 152.005 64.5013 151.6 65.056C151.216 65.5893 150.853 66.112 150.512 66.624C150.171 67.136 149.883 67.5947 149.648 68H146.928C147.632 66.72 148.485 65.408 149.488 64.064C150.512 62.6987 151.515 61.408 152.496 60.192L147.152 53.152H150.128L154.128 58.336L157.808 53.152H160.624L155.728 60.032C156.688 61.2907 157.648 62.6027 158.608 63.968C159.589 65.3333 160.421 66.6773 161.104 68H158.16ZM172.368 65.952C172.368 66.592 172.155 67.1573 171.728 67.648C171.301 68.1387 170.736 68.384 170.032 68.384C169.307 68.384 168.731 68.1387 168.304 67.648C167.877 67.1573 167.664 66.592 167.664 65.952C167.664 65.2907 167.877 64.7147 168.304 64.224C168.731 63.7333 169.307 63.488 170.032 63.488C170.736 63.488 171.301 63.7333 171.728 64.224C172.155 64.7147 172.368 65.2907 172.368 65.952ZM180.272 68V46.272L182.928 45.824V53.376C183.355 53.2053 183.835 53.0773 184.368 52.992C184.901 52.8853 185.424 52.832 185.936 52.832C187.067 52.832 188.005 53.0027 188.752 53.344C189.52 53.664 190.128 54.1227 190.576 54.72C191.024 55.3173 191.344 56.032 191.536 56.864C191.728 57.696 191.824 58.6133 191.824 59.616V68H189.2V60.192C189.2 58.3573 188.944 57.0667 188.432 56.32C187.92 55.552 187.003 55.168 185.68 55.168C185.125 55.168 184.581 55.232 184.048 55.36C183.536 55.4667 183.163 55.5733 182.928 55.68V68H180.272ZM201.776 53.152H208.048V55.36H201.776V62.272C201.776 63.0187 201.829 63.6267 201.936 64.096C202.043 64.5653 202.213 64.9493 202.448 65.248C202.704 65.5253 203.024 65.7173 203.408 65.824C203.792 65.9307 204.261 65.984 204.816 65.984C205.584 65.984 206.203 65.92 206.672 65.792C207.141 65.664 207.589 65.4933 208.016 65.28L208.4 67.52C208.101 67.648 207.621 67.8187 206.96 68.032C206.32 68.2453 205.52 68.352 204.56 68.352C203.451 68.352 202.544 68.224 201.84 67.968C201.136 67.712 200.581 67.328 200.176 66.816C199.792 66.304 199.525 65.6747 199.376 64.928C199.227 64.16 199.152 63.2747 199.152 62.272V55.36H196.016V53.152H199.152V48.992L201.776 48.544V53.152ZM211.312 53.568C212.592 53.0773 213.797 52.832 214.928 52.832C215.547 52.832 216.123 52.928 216.656 53.12C217.211 53.2907 217.68 53.568 218.064 53.952C218.981 53.2053 219.963 52.832 221.008 52.832C221.52 52.832 222 52.928 222.448 53.12C222.917 53.312 223.323 53.6 223.664 53.984C224.027 54.368 224.315 54.848 224.528 55.424C224.741 56 224.848 56.672 224.848 57.44V68H222.448V57.376C222.448 56.608 222.277 56.0213 221.936 55.616C221.595 55.2107 221.168 55.008 220.656 55.008C220.4 55.008 220.133 55.072 219.856 55.2C219.579 55.328 219.323 55.5307 219.088 55.808C219.216 56.2987 219.28 56.8427 219.28 57.44V62.272H216.88V57.408C216.88 56.6613 216.763 56.0747 216.528 55.648C216.293 55.2213 215.835 55.008 215.152 55.008C214.725 55.008 214.245 55.104 213.712 55.296V68H211.312V53.568ZM236.816 68.352C235.877 68.352 235.099 68.224 234.48 67.968C233.861 67.712 233.371 67.328 233.008 66.816C232.645 66.304 232.389 65.6747 232.24 64.928C232.091 64.16 232.016 63.2747 232.016 62.272V48.224H227.728V45.984H234.64V62.272C234.64 63.0187 234.683 63.6267 234.768 64.096C234.875 64.5653 235.024 64.9493 235.216 65.248C235.429 65.5253 235.685 65.7173 235.984 65.824C236.283 65.9307 236.635 65.984 237.04 65.984C237.659 65.984 238.235 65.9093 238.768 65.76C239.301 65.6107 239.717 65.4507 240.016 65.28L240.4 67.52C240.272 67.584 240.091 67.6693 239.856 67.776C239.621 67.8613 239.344 67.9467 239.024 68.032C238.704 68.1173 238.352 68.192 237.968 68.256C237.605 68.32 237.221 68.352 236.816 68.352ZM27.28 105.44H24.72V73.44H27.28V105.44ZM34 90.72V88.16H50V90.72H34ZM50 90.72V88.16H66V90.72H50ZM83.568 92.608C83.568 91.264 83.7813 90.1013 84.208 89.12C84.6347 88.1387 85.2213 87.328 85.968 86.688C86.7147 86.048 87.5787 85.5787 88.56 85.28C89.5627 84.96 90.6293 84.8 91.76 84.8C92.4853 84.8 93.2 84.8533 93.904 84.96C94.6293 85.0453 95.3973 85.216 96.208 85.472L95.6 87.744C94.896 87.488 94.2453 87.328 93.648 87.264C93.072 87.1787 92.4853 87.136 91.888 87.136C91.12 87.136 90.3947 87.2427 89.712 87.456C89.0293 87.648 88.432 87.968 87.92 88.416C87.4293 88.8427 87.0347 89.408 86.736 90.112C86.4373 90.7947 86.288 91.6267 86.288 92.608C86.288 93.5467 86.4267 94.3573 86.704 95.04C86.9813 95.7013 87.3653 96.256 87.856 96.704C88.368 97.1307 88.976 97.4507 89.68 97.664C90.384 97.8773 91.1627 97.984 92.016 97.984C92.6987 97.984 93.3493 97.952 93.968 97.888C94.608 97.8027 95.3013 97.632 96.048 97.376L96.432 99.584C95.6853 99.8613 94.928 100.053 94.16 100.16C93.392 100.288 92.56 100.352 91.664 100.352C90.4693 100.352 89.3707 100.192 88.368 99.872C87.3867 99.5307 86.5333 99.04 85.808 98.4C85.104 97.76 84.5493 96.96 84.144 96C83.76 95.0187 83.568 93.888 83.568 92.608ZM109.232 96.288C109.232 95.7547 109.008 95.3173 108.56 94.976C108.133 94.6347 107.589 94.336 106.928 94.08C106.288 93.824 105.584 93.5787 104.816 93.344C104.048 93.088 103.333 92.7787 102.672 92.416C102.032 92.0533 101.488 91.6053 101.04 91.072C100.613 90.5387 100.4 89.8453 100.4 88.992C100.4 87.7973 100.88 86.8053 101.84 86.016C102.821 85.2053 104.347 84.8 106.416 84.8C107.227 84.8 108.059 84.864 108.912 84.992C109.787 85.0987 110.533 85.248 111.152 85.44L110.672 87.808C110.501 87.7227 110.267 87.6373 109.968 87.552C109.669 87.4453 109.328 87.36 108.944 87.296C108.56 87.2107 108.144 87.1467 107.696 87.104C107.269 87.0613 106.853 87.04 106.448 87.04C104.144 87.04 102.992 87.6693 102.992 88.928C102.992 89.376 103.205 89.76 103.632 90.08C104.08 90.3787 104.635 90.656 105.296 90.912C105.957 91.168 106.672 91.4347 107.44 91.712C108.208 91.968 108.923 92.288 109.584 92.672C110.245 93.056 110.789 93.5253 111.216 94.08C111.664 94.6133 111.888 95.296 111.888 96.128C111.888 97.472 111.365 98.5173 110.32 99.264C109.275 99.9893 107.621 100.352 105.36 100.352C104.336 100.352 103.397 100.267 102.544 100.096C101.691 99.9253 100.88 99.6693 100.112 99.328L100.624 96.928C101.371 97.2693 102.149 97.5573 102.96 97.792C103.792 98.0053 104.677 98.112 105.616 98.112C108.027 98.112 109.232 97.504 109.232 96.288ZM125.232 96.288C125.232 95.7547 125.008 95.3173 124.56 94.976C124.133 94.6347 123.589 94.336 122.928 94.08C122.288 93.824 121.584 93.5787 120.816 93.344C120.048 93.088 119.333 92.7787 118.672 92.416C118.032 92.0533 117.488 91.6053 117.04 91.072C116.613 90.5387 116.4 89.8453 116.4 88.992C116.4 87.7973 116.88 86.8053 117.84 86.016C118.821 85.2053 120.347 84.8 122.416 84.8C123.227 84.8 124.059 84.864 124.912 84.992C125.787 85.0987 126.533 85.248 127.152 85.44L126.672 87.808C126.501 87.7227 126.267 87.6373 125.968 87.552C125.669 87.4453 125.328 87.36 124.944 87.296C124.56 87.2107 124.144 87.1467 123.696 87.104C123.269 87.0613 122.853 87.04 122.448 87.04C120.144 87.04 118.992 87.6693 118.992 88.928C118.992 89.376 119.205 89.76 119.632 90.08C120.08 90.3787 120.635 90.656 121.296 90.912C121.957 91.168 122.672 91.4347 123.44 91.712C124.208 91.968 124.923 92.288 125.584 92.672C126.245 93.056 126.789 93.5253 127.216 94.08C127.664 94.6133 127.888 95.296 127.888 96.128C127.888 97.472 127.365 98.5173 126.32 99.264C125.275 99.9893 123.621 100.352 121.36 100.352C120.336 100.352 119.397 100.267 118.544 100.096C117.691 99.9253 116.88 99.6693 116.112 99.328L116.624 96.928C117.371 97.2693 118.149 97.5573 118.96 97.792C119.792 98.0053 120.677 98.112 121.616 98.112C124.027 98.112 125.232 97.504 125.232 96.288ZM134.928 105.28H132.208L141.136 77.632H143.792L134.928 105.28ZM27.28 137.44H24.72V105.44H27.28V137.44ZM88.72 105.44H91.28V120.16H98V122.72H91.28V137.44H88.72V105.44ZM98 122.72V120.16H114V122.72H98ZM114 122.72V120.16H130V122.72H114ZM149.424 132V117.952C151.6 117.205 153.797 116.832 156.016 116.832C156.699 116.832 157.349 116.864 157.968 116.928C158.587 116.971 159.269 117.077 160.016 117.248L159.536 119.584C158.853 119.392 158.245 119.275 157.712 119.232C157.2 119.168 156.635 119.136 156.016 119.136C154.715 119.136 153.392 119.317 152.048 119.68V132H149.424ZM170.288 116.8C172.293 116.8 173.84 117.429 174.928 118.688C176.016 119.925 176.56 121.813 176.56 124.352V125.28H165.936C166.043 126.816 166.544 127.989 167.44 128.8C168.357 129.589 169.637 129.984 171.28 129.984C172.219 129.984 173.019 129.909 173.68 129.76C174.341 129.611 174.843 129.451 175.184 129.28L175.536 131.52C175.216 131.691 174.64 131.872 173.808 132.064C172.976 132.256 172.037 132.352 170.992 132.352C169.712 132.352 168.581 132.16 167.6 131.776C166.64 131.371 165.84 130.827 165.2 130.144C164.56 129.461 164.08 128.651 163.76 127.712C163.44 126.752 163.28 125.717 163.28 124.608C163.28 123.285 163.483 122.133 163.888 121.152C164.293 120.171 164.827 119.36 165.488 118.72C166.149 118.08 166.896 117.6 167.728 117.28C168.56 116.96 169.413 116.8 170.288 116.8ZM173.872 123.136C173.872 121.877 173.541 120.885 172.88 120.16C172.219 119.413 171.344 119.04 170.256 119.04C169.637 119.04 169.072 119.157 168.56 119.392C168.069 119.627 167.643 119.936 167.28 120.32C166.917 120.704 166.629 121.141 166.416 121.632C166.203 122.123 166.064 122.624 166 123.136H173.872ZM189.232 128.288C189.232 127.755 189.008 127.317 188.56 126.976C188.133 126.635 187.589 126.336 186.928 126.08C186.288 125.824 185.584 125.579 184.816 125.344C184.048 125.088 183.333 124.779 182.672 124.416C182.032 124.053 181.488 123.605 181.04 123.072C180.613 122.539 180.4 121.845 180.4 120.992C180.4 119.797 180.88 118.805 181.84 118.016C182.821 117.205 184.347 116.8 186.416 116.8C187.227 116.8 188.059 116.864 188.912 116.992C189.787 117.099 190.533 117.248 191.152 117.44L190.672 119.808C190.501 119.723 190.267 119.637 189.968 119.552C189.669 119.445 189.328 119.36 188.944 119.296C188.56 119.211 188.144 119.147 187.696 119.104C187.269 119.061 186.853 119.04 186.448 119.04C184.144 119.04 182.992 119.669 182.992 120.928C182.992 121.376 183.205 121.76 183.632 122.08C184.08 122.379 184.635 122.656 185.296 122.912C185.957 123.168 186.672 123.435 187.44 123.712C188.208 123.968 188.923 124.288 189.584 124.672C190.245 125.056 190.789 125.525 191.216 126.08C191.664 126.613 191.888 127.296 191.888 128.128C191.888 129.472 191.365 130.517 190.32 131.264C189.275 131.989 187.621 132.352 185.36 132.352C184.336 132.352 183.397 132.267 182.544 132.096C181.691 131.925 180.88 131.669 180.112 131.328L180.624 128.928C181.371 129.269 182.149 129.557 182.96 129.792C183.792 130.005 184.677 130.112 185.616 130.112C188.027 130.112 189.232 129.504 189.232 128.288ZM202.288 116.8C204.293 116.8 205.84 117.429 206.928 118.688C208.016 119.925 208.56 121.813 208.56 124.352V125.28H197.936C198.043 126.816 198.544 127.989 199.44 128.8C200.357 129.589 201.637 129.984 203.28 129.984C204.219 129.984 205.019 129.909 205.68 129.76C206.341 129.611 206.843 129.451 207.184 129.28L207.536 131.52C207.216 131.691 206.64 131.872 205.808 132.064C204.976 132.256 204.037 132.352 202.992 132.352C201.712 132.352 200.581 132.16 199.6 131.776C198.64 131.371 197.84 130.827 197.2 130.144C196.56 129.461 196.08 128.651 195.76 127.712C195.44 126.752 195.28 125.717 195.28 124.608C195.28 123.285 195.483 122.133 195.888 121.152C196.293 120.171 196.827 119.36 197.488 118.72C198.149 118.08 198.896 117.6 199.728 117.28C200.56 116.96 201.413 116.8 202.288 116.8ZM205.872 123.136C205.872 121.877 205.541 120.885 204.88 120.16C204.219 119.413 203.344 119.04 202.256 119.04C201.637 119.04 201.072 119.157 200.56 119.392C200.069 119.627 199.643 119.936 199.28 120.32C198.917 120.704 198.629 121.141 198.416 121.632C198.203 122.123 198.064 122.624 198 123.136H205.872ZM217.776 117.152H224.048V119.36H217.776V126.272C217.776 127.019 217.829 127.627 217.936 128.096C218.043 128.565 218.213 128.949 218.448 129.248C218.704 129.525 219.024 129.717 219.408 129.824C219.792 129.931 220.261 129.984 220.816 129.984C221.584 129.984 222.203 129.92 222.672 129.792C223.141 129.664 223.589 129.493 224.016 129.28L224.4 131.52C224.101 131.648 223.621 131.819 222.96 132.032C222.32 132.245 221.52 132.352 220.56 132.352C219.451 132.352 218.544 132.224 217.84 131.968C217.136 131.712 216.581 131.328 216.176 130.816C215.792 130.304 215.525 129.675 215.376 128.928C215.227 128.16 215.152 127.275 215.152 126.272V119.36H212.016V117.152H215.152V112.992L217.776 112.544V117.152ZM236.368 129.952C236.368 130.592 236.155 131.157 235.728 131.648C235.301 132.139 234.736 132.384 234.032 132.384C233.307 132.384 232.731 132.139 232.304 131.648C231.877 131.157 231.664 130.592 231.664 129.952C231.664 129.291 231.877 128.715 232.304 128.224C232.731 127.733 233.307 127.488 234.032 127.488C234.736 127.488 235.301 127.733 235.728 128.224C236.155 128.715 236.368 129.291 236.368 129.952ZM243.568 124.608C243.568 123.264 243.781 122.101 244.208 121.12C244.635 120.139 245.221 119.328 245.968 118.688C246.715 118.048 247.579 117.579 248.56 117.28C249.563 116.96 250.629 116.8 251.76 116.8C252.485 116.8 253.2 116.853 253.904 116.96C254.629 117.045 255.397 117.216 256.208 117.472L255.6 119.744C254.896 119.488 254.245 119.328 253.648 119.264C253.072 119.179 252.485 119.136 251.888 119.136C251.12 119.136 250.395 119.243 249.712 119.456C249.029 119.648 248.432 119.968 247.92 120.416C247.429 120.843 247.035 121.408 246.736 122.112C246.437 122.795 246.288 123.627 246.288 124.608C246.288 125.547 246.427 126.357 246.704 127.04C246.981 127.701 247.365 128.256 247.856 128.704C248.368 129.131 248.976 129.451 249.68 129.664C250.384 129.877 251.163 129.984 252.016 129.984C252.699 129.984 253.349 129.952 253.968 129.888C254.608 129.803 255.301 129.632 256.048 129.376L256.432 131.584C255.685 131.861 254.928 132.053 254.16 132.16C253.392 132.288 252.56 132.352 251.664 132.352C250.469 132.352 249.371 132.192 248.368 131.872C247.387 131.531 246.533 131.04 245.808 130.4C245.104 129.76 244.549 128.96 244.144 128C243.76 127.019 243.568 125.888 243.568 124.608ZM269.232 128.288C269.232 127.755 269.008 127.317 268.56 126.976C268.133 126.635 267.589 126.336 266.928 126.08C266.288 125.824 265.584 125.579 264.816 125.344C264.048 125.088 263.333 124.779 262.672 124.416C262.032 124.053 261.488 123.605 261.04 123.072C260.613 122.539 260.4 121.845 260.4 120.992C260.4 119.797 260.88 118.805 261.84 118.016C262.821 117.205 264.347 116.8 266.416 116.8C267.227 116.8 268.059 116.864 268.912 116.992C269.787 117.099 270.533 117.248 271.152 117.44L270.672 119.808C270.501 119.723 270.267 119.637 269.968 119.552C269.669 119.445 269.328 119.36 268.944 119.296C268.56 119.211 268.144 119.147 267.696 119.104C267.269 119.061 266.853 119.04 266.448 119.04C264.144 119.04 262.992 119.669 262.992 120.928C262.992 121.376 263.205 121.76 263.632 122.08C264.08 122.379 264.635 122.656 265.296 122.912C265.957 123.168 266.672 123.435 267.44 123.712C268.208 123.968 268.923 124.288 269.584 124.672C270.245 125.056 270.789 125.525 271.216 126.08C271.664 126.613 271.888 127.296 271.888 128.128C271.888 129.472 271.365 130.517 270.32 131.264C269.275 131.989 267.621 132.352 265.36 132.352C264.336 132.352 263.397 132.267 262.544 132.096C261.691 131.925 260.88 131.669 260.112 131.328L260.624 128.928C261.371 129.269 262.149 129.557 262.96 129.792C263.792 130.005 264.677 130.112 265.616 130.112C268.027 130.112 269.232 129.504 269.232 128.288ZM285.232 128.288C285.232 127.755 285.008 127.317 284.56 126.976C284.133 126.635 283.589 126.336 282.928 126.08C282.288 125.824 281.584 125.579 280.816 125.344C280.048 125.088 279.333 124.779 278.672 124.416C278.032 124.053 277.488 123.605 277.04 123.072C276.613 122.539 276.4 121.845 276.4 120.992C276.4 119.797 276.88 118.805 277.84 118.016C278.821 117.205 280.347 116.8 282.416 116.8C283.227 116.8 284.059 116.864 284.912 116.992C285.787 117.099 286.533 117.248 287.152 117.44L286.672 119.808C286.501 119.723 286.267 119.637 285.968 119.552C285.669 119.445 285.328 119.36 284.944 119.296C284.56 119.211 284.144 119.147 283.696 119.104C283.269 119.061 282.853 119.04 282.448 119.04C280.144 119.04 278.992 119.669 278.992 120.928C278.992 121.376 279.205 121.76 279.632 122.08C280.08 122.379 280.635 122.656 281.296 122.912C281.957 123.168 282.672 123.435 283.44 123.712C284.208 123.968 284.923 124.288 285.584 124.672C286.245 125.056 286.789 125.525 287.216 126.08C287.664 126.613 287.888 127.296 287.888 128.128C287.888 129.472 287.365 130.517 286.32 131.264C285.275 131.989 283.621 132.352 281.36 132.352C280.336 132.352 279.397 132.267 278.544 132.096C277.691 131.925 276.88 131.669 276.112 131.328L276.624 128.928C277.371 129.269 278.149 129.557 278.96 129.792C279.792 130.005 280.677 130.112 281.616 130.112C284.027 130.112 285.232 129.504 285.232 128.288ZM27.28 169.44H24.72V137.44H27.28V169.44ZM88.72 137.44H91.28V152.16H98V154.72H91.28V169.44H88.72V137.44ZM98 154.72V152.16H114V154.72H98ZM114 154.72V152.16H130V154.72H114ZM157.232 160.288C157.232 159.755 157.008 159.317 156.56 158.976C156.133 158.635 155.589 158.336 154.928 158.08C154.288 157.824 153.584 157.579 152.816 157.344C152.048 157.088 151.333 156.779 150.672 156.416C150.032 156.053 149.488 155.605 149.04 155.072C148.613 154.539 148.4 153.845 148.4 152.992C148.4 151.797 148.88 150.805 149.84 150.016C150.821 149.205 152.347 148.8 154.416 148.8C155.227 148.8 156.059 148.864 156.912 148.992C157.787 149.099 158.533 149.248 159.152 149.44L158.672 151.808C158.501 151.723 158.267 151.637 157.968 151.552C157.669 151.445 157.328 151.36 156.944 151.296C156.56 151.211 156.144 151.147 155.696 151.104C155.269 151.061 154.853 151.04 154.448 151.04C152.144 151.04 150.992 151.669 150.992 152.928C150.992 153.376 151.205 153.76 151.632 154.08C152.08 154.379 152.635 154.656 153.296 154.912C153.957 155.168 154.672 155.435 155.44 155.712C156.208 155.968 156.923 156.288 157.584 156.672C158.245 157.056 158.789 157.525 159.216 158.08C159.664 158.613 159.888 159.296 159.888 160.128C159.888 161.472 159.365 162.517 158.32 163.264C157.275 163.989 155.621 164.352 153.36 164.352C152.336 164.352 151.397 164.267 150.544 164.096C149.691 163.925 148.88 163.669 148.112 163.328L148.624 160.928C149.371 161.269 150.149 161.557 150.96 161.792C151.792 162.005 152.677 162.112 153.616 162.112C156.027 162.112 157.232 161.504 157.232 160.288ZM169.776 149.152H176.048V151.36H169.776V158.272C169.776 159.019 169.829 159.627 169.936 160.096C170.043 160.565 170.213 160.949 170.448 161.248C170.704 161.525 171.024 161.717 171.408 161.824C171.792 161.931 172.261 161.984 172.816 161.984C173.584 161.984 174.203 161.92 174.672 161.792C175.141 161.664 175.589 161.493 176.016 161.28L176.4 163.52C176.101 163.648 175.621 163.819 174.96 164.032C174.32 164.245 173.52 164.352 172.56 164.352C171.451 164.352 170.544 164.224 169.84 163.968C169.136 163.712 168.581 163.328 168.176 162.816C167.792 162.304 167.525 161.675 167.376 160.928C167.227 160.16 167.152 159.275 167.152 158.272V151.36H164.016V149.152H167.152V144.992L169.776 144.544V149.152ZM179.632 166.784C179.824 166.891 180.091 166.976 180.432 167.04C180.795 167.104 181.125 167.136 181.424 167.136C182.469 167.136 183.28 166.901 183.856 166.432C184.453 165.984 184.997 165.237 185.488 164.192C184.293 161.931 183.173 159.509 182.128 156.928C181.083 154.325 180.219 151.733 179.536 149.152H182.416C182.629 150.005 182.875 150.933 183.152 151.936C183.451 152.917 183.781 153.931 184.144 154.976C184.507 156.021 184.891 157.077 185.296 158.144C185.723 159.189 186.171 160.192 186.64 161.152C186.981 160.171 187.301 159.2 187.6 158.24C187.899 157.28 188.176 156.32 188.432 155.36C188.688 154.379 188.944 153.387 189.2 152.384C189.456 151.36 189.723 150.283 190 149.152H192.752C192.069 151.925 191.301 154.613 190.448 157.216C189.616 159.819 188.72 162.229 187.76 164.448C187.397 165.301 187.003 166.037 186.576 166.656C186.171 167.275 185.723 167.787 185.232 168.192C184.741 168.597 184.187 168.896 183.568 169.088C182.949 169.28 182.245 169.376 181.456 169.376C181.051 169.376 180.603 169.323 180.112 169.216C179.643 169.109 179.323 169.013 179.152 168.928L179.632 166.784ZM204.816 164.352C203.877 164.352 203.099 164.224 202.48 163.968C201.861 163.712 201.371 163.328 201.008 162.816C200.645 162.304 200.389 161.675 200.24 160.928C200.091 160.16 200.016 159.275 200.016 158.272V144.224H195.728V141.984H202.64V158.272C202.64 159.019 202.683 159.627 202.768 160.096C202.875 160.565 203.024 160.949 203.216 161.248C203.429 161.525 203.685 161.717 203.984 161.824C204.283 161.931 204.635 161.984 205.04 161.984C205.659 161.984 206.235 161.909 206.768 161.76C207.301 161.611 207.717 161.451 208.016 161.28L208.4 163.52C208.272 163.584 208.091 163.669 207.856 163.776C207.621 163.861 207.344 163.947 207.024 164.032C206.704 164.117 206.352 164.192 205.968 164.256C205.605 164.32 205.221 164.352 204.816 164.352ZM218.288 148.8C220.293 148.8 221.84 149.429 222.928 150.688C224.016 151.925 224.56 153.813 224.56 156.352V157.28H213.936C214.043 158.816 214.544 159.989 215.44 160.8C216.357 161.589 217.637 161.984 219.28 161.984C220.219 161.984 221.019 161.909 221.68 161.76C222.341 161.611 222.843 161.451 223.184 161.28L223.536 163.52C223.216 163.691 222.64 163.872 221.808 164.064C220.976 164.256 220.037 164.352 218.992 164.352C217.712 164.352 216.581 164.16 215.6 163.776C214.64 163.371 213.84 162.827 213.2 162.144C212.56 161.461 212.08 160.651 211.76 159.712C211.44 158.752 211.28 157.717 211.28 156.608C211.28 155.285 211.483 154.133 211.888 153.152C212.293 152.171 212.827 151.36 213.488 150.72C214.149 150.08 214.896 149.6 215.728 149.28C216.56 148.96 217.413 148.8 218.288 148.8ZM221.872 155.136C221.872 153.877 221.541 152.885 220.88 152.16C220.219 151.413 219.344 151.04 218.256 151.04C217.637 151.04 217.072 151.157 216.56 151.392C216.069 151.627 215.643 151.936 215.28 152.32C214.917 152.704 214.629 153.141 214.416 153.632C214.203 154.123 214.064 154.624 214 155.136H221.872ZM236.368 161.952C236.368 162.592 236.155 163.157 235.728 163.648C235.301 164.139 234.736 164.384 234.032 164.384C233.307 164.384 232.731 164.139 232.304 163.648C231.877 163.157 231.664 162.592 231.664 161.952C231.664 161.291 231.877 160.715 232.304 160.224C232.731 159.733 233.307 159.488 234.032 159.488C234.736 159.488 235.301 159.733 235.728 160.224C236.155 160.715 236.368 161.291 236.368 161.952ZM243.568 156.608C243.568 155.264 243.781 154.101 244.208 153.12C244.635 152.139 245.221 151.328 245.968 150.688C246.715 150.048 247.579 149.579 248.56 149.28C249.563 148.96 250.629 148.8 251.76 148.8C252.485 148.8 253.2 148.853 253.904 148.96C254.629 149.045 255.397 149.216 256.208 149.472L255.6 151.744C254.896 151.488 254.245 151.328 253.648 151.264C253.072 151.179 252.485 151.136 251.888 151.136C251.12 151.136 250.395 151.243 249.712 151.456C249.029 151.648 248.432 151.968 247.92 152.416C247.429 152.843 247.035 153.408 246.736 154.112C246.437 154.795 246.288 155.627 246.288 156.608C246.288 157.547 246.427 158.357 246.704 159.04C246.981 159.701 247.365 160.256 247.856 160.704C248.368 161.131 248.976 161.451 249.68 161.664C250.384 161.877 251.163 161.984 252.016 161.984C252.699 161.984 253.349 161.952 253.968 161.888C254.608 161.803 255.301 161.632 256.048 161.376L256.432 163.584C255.685 163.861 254.928 164.053 254.16 164.16C253.392 164.288 252.56 164.352 251.664 164.352C250.469 164.352 249.371 164.192 248.368 163.872C247.387 163.531 246.533 163.04 245.808 162.4C245.104 161.76 244.549 160.96 244.144 160C243.76 159.019 243.568 157.888 243.568 156.608ZM269.232 160.288C269.232 159.755 269.008 159.317 268.56 158.976C268.133 158.635 267.589 158.336 266.928 158.08C266.288 157.824 265.584 157.579 264.816 157.344C264.048 157.088 263.333 156.779 262.672 156.416C262.032 156.053 261.488 155.605 261.04 155.072C260.613 154.539 260.4 153.845 260.4 152.992C260.4 151.797 260.88 150.805 261.84 150.016C262.821 149.205 264.347 148.8 266.416 148.8C267.227 148.8 268.059 148.864 268.912 148.992C269.787 149.099 270.533 149.248 271.152 149.44L270.672 151.808C270.501 151.723 270.267 151.637 269.968 151.552C269.669 151.445 269.328 151.36 268.944 151.296C268.56 151.211 268.144 151.147 267.696 151.104C267.269 151.061 266.853 151.04 266.448 151.04C264.144 151.04 262.992 151.669 262.992 152.928C262.992 153.376 263.205 153.76 263.632 154.08C264.08 154.379 264.635 154.656 265.296 154.912C265.957 155.168 266.672 155.435 267.44 155.712C268.208 155.968 268.923 156.288 269.584 156.672C270.245 157.056 270.789 157.525 271.216 158.08C271.664 158.613 271.888 159.296 271.888 160.128C271.888 161.472 271.365 162.517 270.32 163.264C269.275 163.989 267.621 164.352 265.36 164.352C264.336 164.352 263.397 164.267 262.544 164.096C261.691 163.925 260.88 163.669 260.112 163.328L260.624 160.928C261.371 161.269 262.149 161.557 262.96 161.792C263.792 162.005 264.677 162.112 265.616 162.112C268.027 162.112 269.232 161.504 269.232 160.288ZM285.232 160.288C285.232 159.755 285.008 159.317 284.56 158.976C284.133 158.635 283.589 158.336 282.928 158.08C282.288 157.824 281.584 157.579 280.816 157.344C280.048 157.088 279.333 156.779 278.672 156.416C278.032 156.053 277.488 155.605 277.04 155.072C276.613 154.539 276.4 153.845 276.4 152.992C276.4 151.797 276.88 150.805 277.84 150.016C278.821 149.205 280.347 148.8 282.416 148.8C283.227 148.8 284.059 148.864 284.912 148.992C285.787 149.099 286.533 149.248 287.152 149.44L286.672 151.808C286.501 151.723 286.267 151.637 285.968 151.552C285.669 151.445 285.328 151.36 284.944 151.296C284.56 151.211 284.144 151.147 283.696 151.104C283.269 151.061 282.853 151.04 282.448 151.04C280.144 151.04 278.992 151.669 278.992 152.928C278.992 153.376 279.205 153.76 279.632 154.08C280.08 154.379 280.635 154.656 281.296 154.912C281.957 155.168 282.672 155.435 283.44 155.712C284.208 155.968 284.923 156.288 285.584 156.672C286.245 157.056 286.789 157.525 287.216 158.08C287.664 158.613 287.888 159.296 287.888 160.128C287.888 161.472 287.365 162.517 286.32 163.264C285.275 163.989 283.621 164.352 281.36 164.352C280.336 164.352 279.397 164.267 278.544 164.096C277.691 163.925 276.88 163.669 276.112 163.328L276.624 160.928C277.371 161.269 278.149 161.557 278.96 161.792C279.792 162.005 280.677 162.112 281.616 162.112C284.027 162.112 285.232 161.504 285.232 160.288ZM27.28 201.44H24.72V169.44H27.28V201.44ZM34 186.72V184.16H50V186.72H34ZM50 186.72V184.16H66V186.72H50ZM88.688 178.848C88.1333 178.848 87.6533 178.656 87.248 178.272C86.8427 177.888 86.64 177.365 86.64 176.704C86.64 176.043 86.8427 175.52 87.248 175.136C87.6533 174.752 88.1333 174.56 88.688 174.56C89.264 174.56 89.744 174.752 90.128 175.136C90.5333 175.52 90.736 176.043 90.736 176.704C90.736 177.365 90.5333 177.888 90.128 178.272C89.744 178.656 89.264 178.848 88.688 178.848ZM88.016 183.36H83.728V181.152H90.64V190.272C90.64 191.744 90.8427 192.736 91.248 193.248C91.6533 193.739 92.2613 193.984 93.072 193.984C93.6907 193.984 94.256 193.909 94.768 193.76C95.3013 193.611 95.7173 193.451 96.016 193.28L96.4 195.52C96.272 195.584 96.0907 195.669 95.856 195.776C95.6213 195.861 95.344 195.947 95.024 196.032C94.7253 196.117 94.384 196.192 94 196.256C93.6373 196.32 93.2533 196.352 92.848 196.352C91.9093 196.352 91.1307 196.224 90.512 195.968C89.8933 195.712 89.392 195.328 89.008 194.816C88.6453 194.304 88.3893 193.675 88.24 192.928C88.0907 192.16 88.016 191.275 88.016 190.272V183.36ZM99.312 181.568C100.592 181.077 101.797 180.832 102.928 180.832C103.547 180.832 104.123 180.928 104.656 181.12C105.211 181.291 105.68 181.568 106.064 181.952C106.981 181.205 107.963 180.832 109.008 180.832C109.52 180.832 110 180.928 110.448 181.12C110.917 181.312 111.323 181.6 111.664 181.984C112.027 182.368 112.315 182.848 112.528 183.424C112.741 184 112.848 184.672 112.848 185.44V196H110.448V185.376C110.448 184.608 110.277 184.021 109.936 183.616C109.595 183.211 109.168 183.008 108.656 183.008C108.4 183.008 108.133 183.072 107.856 183.2C107.579 183.328 107.323 183.531 107.088 183.808C107.216 184.299 107.28 184.843 107.28 185.44V190.272H104.88V185.408C104.88 184.661 104.763 184.075 104.528 183.648C104.293 183.221 103.835 183.008 103.152 183.008C102.725 183.008 102.245 183.104 101.712 183.296V196H99.312V181.568ZM125.072 194.624C124.773 194.795 124.315 194.976 123.696 195.168C123.077 195.36 122.363 195.456 121.552 195.456C120.677 195.456 119.856 195.317 119.088 195.04C118.341 194.741 117.68 194.304 117.104 193.728C116.549 193.131 116.101 192.384 115.76 191.488C115.44 190.571 115.28 189.493 115.28 188.256C115.28 187.168 115.429 186.176 115.728 185.28C116.048 184.363 116.496 183.573 117.072 182.912C117.669 182.251 118.395 181.739 119.248 181.376C120.101 180.992 121.072 180.8 122.16 180.8C123.44 180.8 124.528 180.896 125.424 181.088C126.341 181.259 127.109 181.429 127.728 181.6V194.848C127.728 197.152 127.141 198.816 125.968 199.84C124.816 200.864 123.067 201.376 120.72 201.376C119.76 201.376 118.885 201.301 118.096 201.152C117.328 201.003 116.645 200.821 116.048 200.608L116.528 198.272C117.083 198.507 117.712 198.699 118.416 198.848C119.141 198.997 119.931 199.072 120.784 199.072C122.32 199.072 123.419 198.763 124.08 198.144C124.741 197.525 125.072 196.523 125.072 195.136V194.624ZM125.072 183.488C124.816 183.403 124.464 183.328 124.016 183.264C123.568 183.179 122.96 183.136 122.192 183.136C120.827 183.136 119.781 183.605 119.056 184.544C118.352 185.483 118 186.731 118 188.288C118 189.141 118.096 189.877 118.288 190.496C118.501 191.093 118.779 191.595 119.12 192C119.483 192.384 119.888 192.672 120.336 192.864C120.784 193.035 121.264 193.12 121.776 193.12C122.437 193.12 123.056 193.024 123.632 192.832C124.229 192.64 124.709 192.416 125.072 192.16V183.488ZM134.928 201.28H132.208L141.136 173.632H143.792L134.928 201.28ZM27.28 233.44H24.72V201.44H27.28V233.44ZM34 218.72V216.16H50V218.72H34ZM50 218.72V216.16H66V218.72H50ZM87.152 228V215.36H84.016V213.152H87.152V211.808C87.152 210.656 87.312 209.707 87.632 208.96C87.952 208.192 88.368 207.573 88.88 207.104C89.4133 206.635 90.0213 206.304 90.704 206.112C91.408 205.92 92.144 205.824 92.912 205.824C93.68 205.824 94.448 205.909 95.216 206.08C96.0053 206.251 96.7413 206.453 97.424 206.688L96.944 208.96C96.4747 208.725 95.888 208.523 95.184 208.352C94.48 208.181 93.7653 208.096 93.04 208.096C92.592 208.096 92.1653 208.16 91.76 208.288C91.376 208.395 91.0347 208.597 90.736 208.896C90.4373 209.173 90.2027 209.557 90.032 210.048C89.8613 210.517 89.776 211.115 89.776 211.84V213.152H95.76V215.36H89.776V228H87.152ZM112.72 220.576C112.72 221.749 112.549 222.816 112.208 223.776C111.888 224.715 111.429 225.525 110.832 226.208C110.235 226.891 109.52 227.424 108.688 227.808C107.856 228.171 106.949 228.352 105.968 228.352C105.008 228.352 104.112 228.171 103.28 227.808C102.469 227.424 101.765 226.891 101.168 226.208C100.571 225.525 100.101 224.715 99.76 223.776C99.44 222.816 99.28 221.749 99.28 220.576C99.28 219.403 99.44 218.336 99.76 217.376C100.101 216.416 100.571 215.605 101.168 214.944C101.765 214.261 102.469 213.739 103.28 213.376C104.112 212.992 105.008 212.8 105.968 212.8C106.949 212.8 107.856 212.992 108.688 213.376C109.52 213.739 110.235 214.261 110.832 214.944C111.429 215.605 111.888 216.416 112.208 217.376C112.549 218.336 112.72 219.403 112.72 220.576ZM110 220.576C110 218.891 109.637 217.568 108.912 216.608C108.187 215.627 107.205 215.136 105.968 215.136C104.752 215.136 103.781 215.627 103.056 216.608C102.352 217.568 102 218.891 102 220.576C102 222.24 102.352 223.563 103.056 224.544C103.781 225.504 104.752 225.984 105.968 225.984C107.205 225.984 108.187 225.504 108.912 224.544C109.637 223.563 110 222.24 110 220.576ZM116.272 213.568C117.232 213.333 118.181 213.152 119.12 213.024C120.08 212.896 120.976 212.832 121.808 212.832C123.792 212.832 125.285 213.344 126.288 214.368C127.312 215.392 127.824 217.035 127.824 219.296V228H125.2V219.776C125.2 218.816 125.115 218.037 124.944 217.44C124.773 216.843 124.528 216.384 124.208 216.064C123.909 215.723 123.536 215.488 123.088 215.36C122.661 215.232 122.192 215.168 121.68 215.168C121.253 215.168 120.795 215.2 120.304 215.264C119.835 215.307 119.376 215.371 118.928 215.456V228H116.272V213.568ZM137.776 213.152H144.048V215.36H137.776V222.272C137.776 223.019 137.829 223.627 137.936 224.096C138.043 224.565 138.213 224.949 138.448 225.248C138.704 225.525 139.024 225.717 139.408 225.824C139.792 225.931 140.261 225.984 140.816 225.984C141.584 225.984 142.203 225.92 142.672 225.792C143.141 225.664 143.589 225.493 144.016 225.28L144.4 227.52C144.101 227.648 143.621 227.819 142.96 228.032C142.32 228.245 141.52 228.352 140.56 228.352C139.451 228.352 138.544 228.224 137.84 227.968C137.136 227.712 136.581 227.328 136.176 226.816C135.792 226.304 135.525 225.675 135.376 224.928C135.227 224.16 135.152 223.275 135.152 222.272V215.36H132.016V213.152H135.152V208.992L137.776 208.544V213.152ZM157.232 224.288C157.232 223.755 157.008 223.317 156.56 222.976C156.133 222.635 155.589 222.336 154.928 222.08C154.288 221.824 153.584 221.579 152.816 221.344C152.048 221.088 151.333 220.779 150.672 220.416C150.032 220.053 149.488 219.605 149.04 219.072C148.613 218.539 148.4 217.845 148.4 216.992C148.4 215.797 148.88 214.805 149.84 214.016C150.821 213.205 152.347 212.8 154.416 212.8C155.227 212.8 156.059 212.864 156.912 212.992C157.787 213.099 158.533 213.248 159.152 213.44L158.672 215.808C158.501 215.723 158.267 215.637 157.968 215.552C157.669 215.445 157.328 215.36 156.944 215.296C156.56 215.211 156.144 215.147 155.696 215.104C155.269 215.061 154.853 215.04 154.448 215.04C152.144 215.04 150.992 215.669 150.992 216.928C150.992 217.376 151.205 217.76 151.632 218.08C152.08 218.379 152.635 218.656 153.296 218.912C153.957 219.168 154.672 219.435 155.44 219.712C156.208 219.968 156.923 220.288 157.584 220.672C158.245 221.056 158.789 221.525 159.216 222.08C159.664 222.613 159.888 223.296 159.888 224.128C159.888 225.472 159.365 226.517 158.32 227.264C157.275 227.989 155.621 228.352 153.36 228.352C152.336 228.352 151.397 228.267 150.544 228.096C149.691 227.925 148.88 227.669 148.112 227.328L148.624 224.928C149.371 225.269 150.149 225.557 150.96 225.792C151.792 226.005 152.677 226.112 153.616 226.112C156.027 226.112 157.232 225.504 157.232 224.288ZM166.928 233.28H164.208L173.136 205.632H175.792L166.928 233.28Z" fill="#404040"/>
</svg>
