<svg width="82" height="69" viewBox="0 0 82 69" fill="none" xmlns="http://www.w3.org/2000/svg">
<path d="M77.348 5.54669C75.7701 3.77704 73.8919 2.37521 71.8229 1.42295C69.7538 0.470691 67.5354 -0.0129385 65.2969 0.000263159H27.4571C25.2226 -0.000860184 23.0102 0.492937 20.9484 1.45296C18.8866 2.41299 17.0166 3.8201 15.447 5.59253L15.118 5.95923L2.4499 25.2571C0.85051 28.0249 0 31.2473 0 34.5394C0 37.8314 0.85051 41.0539 2.4499 43.8216L14.789 62.9361L15.118 63.3487C16.691 65.1128 18.5625 66.5115 20.6241 67.4636C22.6858 68.4156 24.8964 68.9022 27.128 68.8951H64.9678C67.202 68.9011 69.4153 68.4159 71.481 67.4672C73.5467 66.5186 75.4241 65.125 77.0059 63.3665C78.5876 61.608 79.8425 59.519 80.6988 57.2192C81.555 54.9194 81.9957 52.4539 81.9957 49.9639V18.9314C82.0963 13.9603 80.425 9.14738 77.348 5.54669ZM43.7035 55.9687C42.6127 55.9687 41.5665 55.4858 40.7952 54.6262C40.0238 53.7665 39.5905 52.6006 39.5905 51.3849C39.5905 50.1692 40.0238 49.0033 40.7952 48.1437C41.5665 47.284 42.6127 46.8011 43.7035 46.8011C44.7943 46.8011 45.8405 47.284 46.6118 48.1437C47.3832 49.0033 47.8165 50.1692 47.8165 51.3849C47.8165 52.6006 47.3832 53.7665 46.6118 54.6262C45.8405 55.4858 44.7943 55.9687 43.7035 55.9687ZM54.6853 30.666C54.095 32.2312 53.2116 33.6377 52.0941 34.7915C50.9845 35.9105 49.6834 36.768 48.269 37.3126V37.5418C48.2341 37.6921 48.2341 37.8498 48.269 38.0001V39.8795C48.269 41.0952 47.8356 42.2611 47.0643 43.1208C46.2929 43.9804 45.2468 44.4633 44.1559 44.4633C43.0651 44.4633 42.0189 43.9804 41.2476 43.1208C40.4762 42.2611 40.0429 41.0952 40.0429 39.8795V37.6334C40.0611 35.6364 40.6208 33.6922 41.6484 32.056C42.6761 30.4199 44.1237 29.1684 45.8011 28.4658C46.1799 28.3332 46.53 28.1147 46.8294 27.8241C47.0804 27.5523 47.2767 27.2242 47.4052 26.8615C47.4854 26.5002 47.4854 26.1226 47.4052 25.7613C47.4069 25.3628 47.3223 24.9697 47.1584 24.6154C46.9203 24.1623 46.5977 23.7715 46.2124 23.4694C45.7773 23.1076 45.2687 22.8714 44.7318 22.7819C43.8816 22.6072 43.0038 22.7355 42.2228 23.1486C41.4767 23.5739 40.8822 24.2688 40.5365 25.1196C40.1926 25.9353 39.6406 26.6199 38.9495 27.0879C38.2584 27.5558 37.4589 27.7864 36.6509 27.7507C35.8428 27.715 35.0622 27.4146 34.4065 26.8871C33.7508 26.3596 33.2492 25.6285 32.9644 24.785C32.7768 24.2185 32.6915 23.6163 32.7134 23.0129C32.7353 22.4096 32.8639 21.817 33.0919 21.2692C34.2031 18.5867 36.0844 16.3932 38.4388 15.0352C40.7861 13.6583 43.4821 13.206 46.0891 13.7517C47.8774 14.0711 49.5729 14.856 51.0379 16.0427C52.503 17.2294 53.6962 18.7845 54.5207 20.5816C55.203 22.1124 55.5818 23.7889 55.6315 25.4972C55.6812 27.2056 55.4005 28.9058 54.8087 30.4827L54.6853 30.666Z" fill="#587FFF"/>
</svg>
